<?xml version="1.0" encoding="utf-8"?>
<!-- Generator: Adobe Illustrator 21.0.0, SVG Export Plug-In . SVG Version: 6.00 Build 0)  -->
<svg version="1.1" id="Layer_1" xmlns="http://www.w3.org/2000/svg" xmlns:xlink="http://www.w3.org/1999/xlink" x="0px" y="0px"
	 viewBox="0 0 150 150" style="enable-background:new 0 0 150 150;" xml:space="preserve">
<style type="text/css">
	.st0{fill:#3C92CA;}
	.st1{fill:#FFFFFF;}
</style>
<g>
	<g>
		<path id="XMLID_744_" class="st0" d="M95.7,55v-5.9c0-1.2-0.6-2.4-1.5-3.2c-5.3-4.4-11.1-7.3-12.2-7.9c-0.1-0.1-0.2-0.2-0.2-0.3
			v-8.3c1.1-0.7,1.7-1.9,1.7-3.2v-8.6c0-4.3-3.5-7.8-7.8-7.8h-0.9h-0.9c-4.3,0-7.8,3.5-7.8,7.8v8.6c0,1.3,0.7,2.5,1.7,3.2v8.3
			c0,0.2-0.1,0.3-0.2,0.3c-1.2,0.6-6.9,3.5-12.2,7.9c-1,0.8-1.5,2-1.5,3.2V55"/>
		<path class="st1" d="M42.8,88c1.3,0,2.4-1.1,2.4-2.4V77h59.2v8.6c0,1.3,1.1,2.4,2.4,2.4c1.3,0,2.4-1.1,2.4-2.4V74.7
			c0-1.3-1.1-2.4-2.4-2.4H77.2v-8.6c0-1.3-1.1-2.4-2.4-2.4c-1.3,0-2.4,1.1-2.4,2.4v8.6H42.8c-1.3,0-2.4,1.1-2.4,2.4v10.9
			C40.4,86.9,41.4,88,42.8,88z"/>
		<path class="st1" d="M116.7,108.3v-7.6c0-5.1-4.1-9.2-9.2-9.2h-1.6c-5.1,0-9.2,4.1-9.2,9.2v7.6c0,1.5,0.6,2.9,1.5,3.9v5
			c-2,1.1-6.2,3.4-10.1,6.6c-1.4,1.2-2.2,2.9-2.2,4.7v5.2c0,1.3,1.1,2.4,2.4,2.4c1.3,0,2.4-1.1,2.4-2.4v-5.2c0-0.4,0.2-0.7,0.5-1
			c4.5-3.7,9.4-6.1,10.3-6.6c0.9-0.5,1.5-1.4,1.5-2.4v-7.3c0-0.8-0.4-1.6-1.1-2c-0.3-0.2-0.5-0.5-0.5-0.9v-7.6c0-2.4,2-4.4,4.4-4.4
			h1.6c2.4,0,4.4,2,4.4,4.4v7.5c0,0.3-0.2,0.7-0.5,0.9c-0.7,0.4-1.1,1.2-1.1,2v7.3c0,1.1,0.6,2,1.5,2.4c0.9,0.4,5.8,2.9,10.3,6.6
			c0.3,0.2,0.5,0.6,0.5,1v5.2c0,1.3,1.1,2.4,2.4,2.4c1.3,0,2.4-1.1,2.4-2.4v-5.2c0-1.8-0.8-3.5-2.2-4.7c-3.9-3.2-8-5.5-10.1-6.6v-5
			C116.1,111.1,116.7,109.7,116.7,108.3z"/>
		<path class="st1" d="M41.9,96.3h1.6c2.4,0,4.3,1.9,4.3,4.3v7.5c0,0.3-0.2,0.6-0.4,0.8c-0.7,0.4-1.1,1.2-1.1,2v7.2
			c0,1.1,0.6,2,1.5,2.4c0.9,0.4,5.7,2.9,10.2,6.5c0.3,0.2,0.4,0.6,0.4,0.9v5.1c0,1.3,1.1,2.4,2.4,2.4c1.3,0,2.4-1.1,2.4-2.4V128
			c0-1.8-0.8-3.5-2.2-4.6c-3.8-3.2-7.9-5.5-10-6.5v-4.9c0.9-1.1,1.5-2.4,1.5-3.9v-7.5c0-5-4.1-9.1-9.1-9.1h-1.6
			c-5,0-9.1,4.1-9.1,9.1v7.5c0,1.4,0.6,2.8,1.5,3.9v4.9c-2,1.1-6.1,3.4-10,6.5c-1.4,1.1-2.2,2.8-2.2,4.6v5.1c0,1.3,1.1,2.4,2.4,2.4
			c1.3,0,2.4-1.1,2.4-2.4V128c0-0.4,0.2-0.7,0.4-0.9c4.4-3.7,9.2-6.1,10.2-6.5c0.9-0.5,1.5-1.4,1.5-2.4v-7.2c0-0.8-0.4-1.6-1.1-2
			c-0.3-0.2-0.4-0.5-0.4-0.8v-7.5C37.6,98.2,39.6,96.3,41.9,96.3z"/>
		<path class="st1" d="M95.7,57.4c1.3,0,2.4-1.1,2.4-2.4v-5.9c0-2-0.9-3.8-2.4-5c-4.5-3.7-9.3-6.4-11.6-7.6v-6
			c1.1-1.2,1.7-2.7,1.7-4.3v-8.6c0-5.6-4.5-10.1-10.1-10.1h-1.8c-5.6,0-10.1,4.5-10.1,10.1v8.6c0,1.6,0.6,3.2,1.7,4.3v6
			c-2.3,1.2-7.1,3.9-11.6,7.6c-1.5,1.2-2.4,3.1-2.4,5V55c0,1.3,1.1,2.4,2.4,2.4c1.3,0,2.4-1.1,2.4-2.4v-5.8c0-0.6,0.2-1.1,0.7-1.4
			c5.1-4.2,10.7-7,11.8-7.5c0.9-0.5,1.6-1.4,1.6-2.5v-8.3c0-0.8-0.4-1.6-1.1-2c-0.4-0.3-0.7-0.7-0.7-1.2v-8.6c0-2.9,2.4-5.4,5.4-5.4
			h1.8c2.9,0,5.4,2.4,5.4,5.4v8.6c0,0.5-0.3,1-0.7,1.2c-0.7,0.4-1.1,1.2-1.1,2v8.3c0,1.1,0.6,2,1.6,2.5c1.1,0.5,6.6,3.3,11.8,7.5
			c0.4,0.3,0.7,0.8,0.7,1.4V55C93.3,56.3,94.4,57.4,95.7,57.4z"/>
	</g>
</g>
</svg>
