<?xml version="1.0" encoding="utf-8"?>
<!-- Generator: Adobe Illustrator 21.0.0, SVG Export Plug-In . SVG Version: 6.00 Build 0)  -->
<svg version="1.1" id="Layer_1" xmlns="http://www.w3.org/2000/svg" xmlns:xlink="http://www.w3.org/1999/xlink" x="0px" y="0px"
	 viewBox="0 0 50 50" style="enable-background:new 0 0 50 50;" xml:space="preserve">
<style type="text/css">
	.st0{fill:#082E40;}
	.st1{opacity:0.3;enable-background:new    ;}
	.st2{fill:#E8ECED;}
	.st3{fill:#959CB3;}
	.st4{fill:#707487;}
	.st5{fill:#40596B;}
	.st6{fill:#CDD6E0;}
	.st7{fill:#EE6C14;}
	.st8{fill:#41C3AC;}
</style>
<g>
	<path class="st0" d="M47.5,25c0,0.1,0,0.1,0,0.2c0,0,0,0.1,0,0.1c0,0.4,0,0.9-0.1,1.3c-0.7,9.9-7.7,18-17.1,20.2
		c-0.4,0.1-0.9,0.2-1.3,0.3c-0.4,0.1-0.9,0.1-1.3,0.2c-0.7,0.1-1.5,0.1-2.2,0.2c-0.1,0-0.3,0-0.4,0C12.6,47.5,2.5,37.4,2.5,25
		S12.6,2.5,25,2.5S47.5,12.6,47.5,25z"/>
	<path class="st1" d="M47.4,26.6c-0.7,9.9-7.7,18-17.1,20.2c-0.4,0.1-0.9,0.2-1.3,0.3c-0.4,0.1-0.9,0.1-1.3,0.2
		c-0.7,0.1-1.5,0.1-2.2,0.2L12.4,35.3l0.6-1.9l0.7-15.7l23.5-0.7L47.4,26.6z"/>
	<rect x="13.3" y="17.5" class="st2" width="23.2" height="15.1"/>
	<path class="st3" d="M37.6,35.3H12.4c-0.5,0-0.9-0.4-0.9-0.9v-0.5c0-0.3,0.2-0.5,0.5-0.5h26.2c0.3,0,0.5,0.2,0.5,0.5v0.5
		C38.6,34.9,38.2,35.3,37.6,35.3z"/>
	<path class="st4" d="M26.6,34.4h-3.2c-0.2,0-0.3-0.1-0.4-0.3l-0.3-0.7h4.7L27,34.1C26.9,34.3,26.8,34.4,26.6,34.4z"/>
	<path class="st5" d="M36.2,16.6H13.8c-0.8,0-1.4,0.6-1.4,1.4v15.5h25.3V18C37.6,17.2,37,16.6,36.2,16.6z M36.2,31.6
		c0,0.3-0.2,0.5-0.5,0.5H14.2c-0.3,0-0.5-0.2-0.5-0.5V18.5c0-0.3,0.2-0.5,0.5-0.5h21.6c0.3,0,0.5,0.2,0.5,0.5V31.6L36.2,31.6z"/>
	<g>
		<rect x="25.1" y="20.1" class="st6" width="8.2" height="1.3"/>
		<rect x="25.1" y="22.4" class="st6" width="8.2" height="1.3"/>
		<rect x="16.7" y="26.8" class="st6" width="8.2" height="1.3"/>
		<rect x="16.7" y="28.9" class="st6" width="8.2" height="1.3"/>
	</g>
	<rect x="16.6" y="19.6" class="st7" width="7.3" height="4.6"/>
	<rect x="26.1" y="26.2" class="st8" width="7.3" height="4.6"/>
</g>
</svg>
