<?xml version="1.0" encoding="utf-8"?>
<!-- Generator: Adobe Illustrator 21.0.0, SVG Export Plug-In . SVG Version: 6.00 Build 0)  -->
<svg version="1.1" id="Layer_1" xmlns="http://www.w3.org/2000/svg" xmlns:xlink="http://www.w3.org/1999/xlink" x="0px" y="0px"
	 viewBox="0 0 50 50" style="enable-background:new 0 0 50 50;" xml:space="preserve">
<style type="text/css">
	.st0{fill:#082E40;}
	.st1{opacity:0.3;}
	.st2{fill:#E2611A;}
	.st3{fill:#EF6C15;}
	.st4{fill:#D3581A;}
	.st5{fill:#FFFFFF;}
	.st6{fill:#1C95BC;}
</style>
<path class="st0" d="M47.5,25c0,0.1,0,0.1,0,0.2c0,0,0,0.1,0,0.1c0,0.4,0,0.9-0.1,1.3c0,0.6-0.1,1.3-0.2,1.9
	c-0.1,0.6-0.2,1.1-0.3,1.7c-1.8,7.5-7.3,13.5-14.5,16c-0.1,0-0.2,0.1-0.3,0.1c-0.1,0-0.1,0-0.2,0.1c-0.2,0.1-0.4,0.1-0.6,0.2
	c-0.1,0-0.3,0.1-0.4,0.1c-0.2,0.1-0.4,0.1-0.6,0.1c-0.4,0.1-0.9,0.2-1.3,0.3c-0.4,0.1-0.9,0.1-1.3,0.2c-0.7,0.1-1.5,0.1-2.2,0.2
	c-0.1,0-0.1,0-0.2,0c-0.1,0-0.2,0-0.3,0C12.6,47.5,2.5,37.4,2.5,25C2.5,12.6,12.6,2.5,25,2.5S47.5,12.6,47.5,25z"/>
<path class="st1" d="M47.2,28.5c-0.1,0.6-0.2,1.1-0.3,1.7c-1.8,7.5-7.3,13.5-14.5,16c-0.1,0-0.2,0.1-0.3,0.1c-0.1,0-0.1,0-0.2,0.1
	c-0.2,0.1-0.4,0.1-0.6,0.2c-0.1,0-0.3,0.1-0.4,0.1c-0.2,0.1-0.4,0.1-0.6,0.1c-0.4,0.1-0.9,0.2-1.3,0.3c-0.4,0.1-0.9,0.1-1.3,0.2
	c-0.7,0.1-1.5,0.1-2.2,0.2c-0.1,0-0.1,0-0.2,0L13.2,36.2l2.7-7.1H25l0-5.2v-4.2l8.1-3L47.2,28.5z"/>
<polygon id="XMLID_1257_" class="st2" points="33.1,25.2 33.1,25.2 27.6,30.4 35.5,36.9 35.5,23 "/>
<polygon id="XMLID_1258_" class="st3" points="14.5,23 14.5,36.9 22.4,30.4 "/>
<polygon id="XMLID_1259_" class="st2" points="22.4,30.4 14.5,36.9 25,36.9 25,32.8 "/>
<polygon id="XMLID_1260_" class="st4" points="25,32.8 25,36.9 35.5,36.9 27.6,30.4 "/>
<polygon id="XMLID_1261_" class="st3" points="16.9,20.8 14.5,23 16.9,23 "/>
<polygon id="XMLID_1262_" class="st3" points="35.5,23 33.1,20.8 33.1,23 "/>
<polygon id="XMLID_1263_" class="st3" points="25,13.1 21.3,16.6 28.7,16.6 "/>
<polygon id="XMLID_1264_" class="st4" points="33.1,25.2 35.5,23 33.1,23 "/>
<polygon id="XMLID_1265_" class="st4" points="25,32.8 16.9,25.2 16.9,23 14.5,23 22.4,30.4 "/>
<path id="XMLID_1266_" class="st5" d="M16.9,25.2l8.1,7.7l2.6-2.5l5.5-5.2v0l0-2.2l0-2.2l0-4.2l-4.4,0l-7.4,0l-4.4,0l0,4.2l0,2.2
	L16.9,25.2z M19.8,23.5h10.5v1.7H19.8V23.5z M19.8,21.8v-1.7h10.5v1.7H19.8z"/>
<rect id="XMLID_1270_" x="19.7" y="20" class="st6" width="10.6" height="1.8"/>
<rect id="XMLID_1271_" x="19.7" y="23.4" class="st6" width="10.6" height="1.9"/>
</svg>
