<?xml version="1.0" encoding="utf-8"?>
<!-- Generator: Adobe Illustrator 21.0.0, SVG Export Plug-In . SVG Version: 6.00 Build 0)  -->
<svg version="1.1" id="Layer_1" xmlns="http://www.w3.org/2000/svg" xmlns:xlink="http://www.w3.org/1999/xlink" x="0px" y="0px"
	 viewBox="0 0 50 50" style="enable-background:new 0 0 50 50;" xml:space="preserve">
<style type="text/css">
	.st0{fill:#082E40;}
	.st1{opacity:0.3;}
	.st2{fill:#EF6C15;}
	.st3{fill:#D85D19;}
	.st4{fill:#A54211;}
	.st5{fill:#FFFFFF;}
	.st6{fill:#41C3AC;}
</style>
<path class="st0" d="M47.5,25c0,0.1,0,0.1,0,0.2c0,0,0,0.1,0,0.1C47.3,36.2,39.4,45.3,29,47.1c-0.4,0.1-0.7,0.1-1.1,0.2
	c-0.1,0-0.2,0-0.3,0c-0.9,0.1-1.8,0.2-2.7,0.2C12.6,47.5,2.5,37.4,2.5,25C2.5,12.6,12.6,2.5,25,2.5C37.4,2.5,47.5,12.6,47.5,25z"/>
<path class="st1" d="M47.5,25.2c0,0,0,0.1,0,0.1C47.3,36.2,39.4,45.3,29,47.1c-0.4,0.1-0.7,0.1-1.1,0.2L13.1,35.8l11.8-9.2l5.3-4.4
	l5.8-6.6L47.5,25.2z"/>
<path class="st2" d="M38.7,24.5h-0.4h-0.4v5.8c0,0.6-0.5,1.2-1.2,1.2h1.5c0.6,0,1.2-0.5,1.2-1.2v-5.8v-0.8
	C39.4,24.1,39.1,24.5,38.7,24.5z"/>
<path class="st3" d="M34.8,15.2C34.8,15.2,34.8,15.2,34.8,15.2c0,0-20.3,0-20.3,0c0,0,0,0,0,0c-1.1,0-2,0.9-2,2.1v0.4
	c0-0.1,0,0.1,0,0.1c0.1,1,1,1.9,2,1.9c0,0,20.3-0.3,20.3-0.3c0,0,0,0.3,0,0.3c1.3,0,2.4,0.8,2.4,2.2v-4.1
	C37.2,16.3,36.1,15.2,34.8,15.2z"/>
<path class="st2" d="M34.8,19.3C34.8,19.3,34.8,19.3,34.8,19.3c0,0-20.3,0-20.3,0c-1.1,0-2-0.8-2-1.9c0,0.1,0,0.1,0,0.2c0,0,0,0,0,0
	v10.9V31v3.1c0,0,0,0,0,0c0,1.3,1.1,2.4,2.4,2.4h19.9c1.3,0,2.4-1.1,2.4-2.4c0,0,0,0,0,0v-1.7V31v-9.2
	C37.2,20.4,36.1,19.3,34.8,19.3z"/>
<path class="st3" d="M34.8,19.3C34.8,19.3,34.8,19.3,34.8,19.3c0,0-0.6,0-1.5,0c1.3,0,2.4,1.1,2.4,2.4V31v1.3v1.7c0,0,0,0,0,0
	c0,1.3-1.1,2.4-2.4,2.4h1.5c1.3,0,2.4-1.1,2.4-2.4c0,0,0,0,0,0v-1.7V31v-9.2C37.2,20.4,36.1,19.3,34.8,19.3z"/>
<path class="st4" d="M34.8,15.2C34.8,15.2,34.8,15.2,34.8,15.2c0,0-0.6,0-1.5,0c1.3,0,2.4,1.1,2.4,2.4v1.8c0.9,0.4,1.5,1.2,1.5,2.3
	v-4.1C37.2,16.3,36.1,15.2,34.8,15.2z"/>
<path class="st3" d="M38,24.5h-0.4h-2.1h-3.3c0,0,0,0,0,0c0,0,0,0,0,0c0,0,0,0,0,0c0,0,0,0,0,0c0,0,0,0,0,0c0,0,0,0,0,0c0,0,0,0,0,0
	c0,0,0,0,0,0c0,0,0,0,0,0c0,0,0,0,0,0c0,0,0,0,0,0c0,0,0,0,0,0c0,0,0,0,0,0c0,0,0,0,0,0c0,0,0,0,0,0c0,0,0,0,0,0c0,0,0,0,0,0
	c0,0,0,0,0,0c0,0,0,0,0,0c0,0,0,0,0,0l-2.1,3.1c0,0,0,0,0,0.1c0,0,0,0,0,0c0,0,0,0,0,0c0,0,0,0,0,0c0,0,0,0,0,0c0,0,0,0,0,0
	c0,0,0,0,0,0c0,0,0,0,0,0c0,0,0,0,0,0c0,0,0,0,0,0c0,0,0,0,0,0c0,0,0,0,0,0c0,0,0,0,0,0c0,0,0,0,0,0c0,0,0,0,0,0c0,0,0,0,0,0
	c0,0,0,0,0,0c0,0,0,0,0,0.1l2.1,3.1c0,0,0,0,0,0c0,0,0,0,0,0c0,0,0,0,0,0c0,0,0,0,0,0c0,0,0,0,0,0c0,0,0,0,0,0c0,0,0,0,0,0
	c0,0,0,0,0,0c0,0,0,0,0,0c0,0,0,0,0,0c0,0,0,0,0,0c0,0,0,0,0,0c0,0,0,0,0,0c0,0,0,0,0,0c0,0,0,0,0,0c0,0,0,0,0,0c0,0,0,0,0,0
	c0,0,0,0,0,0h5.4c0.6,0,1.2-0.5,1.2-1.2v-5.8v-0.8C38.7,24.1,38.4,24.5,38,24.5z"/>
<g>
	<path class="st4" d="M38,22.9h-0.8v0.8c0,0,0,0,0,0c0,0,0,0,0,0v0.8H38c0.4,0,0.8-0.3,0.8-0.8C38.8,23.3,38.4,22.9,38,22.9z"/>
	<path class="st4" d="M34.3,18H14.9c-0.2,0-0.4-0.2-0.4-0.4c0-0.2,0.2-0.4,0.4-0.4h19.4c0.2,0,0.4,0.2,0.4,0.4
		C34.6,17.9,34.5,18,34.3,18z"/>
</g>
<path class="st5" d="M33.7,29.2c-0.7,0-1.3-0.6-1.3-1.3c0-0.7,0.6-1.3,1.3-1.3c0.7,0,1.3,0.6,1.3,1.3C35,28.6,34.5,29.2,33.7,29.2z"
	/>
<path class="st6" d="M31.4,17.6L17,13.5c0,0,0,0,0,0c0,0,0,0,0,0c0,0,0,0,0,0c0,0,0,0,0,0c0,0,0,0,0,0c0,0,0,0,0,0c0,0,0,0,0,0
	c0,0,0,0,0,0c0,0,0,0,0,0c0,0,0,0,0,0c0,0,0,0,0,0c0,0,0,0,0,0c0,0,0,0,0,0c0,0,0,0,0,0c0,0,0,0,0,0c0,0,0,0,0,0c0,0,0,0,0,0
	c0,0,0,0,0,0c0,0,0,0,0,0c0,0,0,0,0,0c0,0,0,0,0,0c0,0,0,0,0,0c0,0,0,0,0,0c0,0,0,0,0,0c0,0,0,0,0,0c0,0,0,0,0,0c0,0,0,0,0,0
	c0,0,0,0,0,0c0,0,0,0,0,0c0,0,0,0,0,0c0,0,0,0,0,0c0,0,0,0,0,0c0,0,0,0,0,0c0,0,0,0,0,0c0,0,0,0,0,0c0,0,0,0,0,0l-1,3.8L31.4,17.6
	L31.4,17.6L31.4,17.6z"/>
<g>
	<path class="st5" d="M27.6,27.8h-7.1c0.1,0.8,0.4,1.4,1,1.8c0.6,0.5,1.3,0.7,2.1,0.7c1,0,1.9-0.3,2.5-1l0.9,1
		c-0.4,0.5-0.9,0.8-1.5,1c-0.6,0.2-1.2,0.4-2,0.4c-0.9,0-1.7-0.2-2.4-0.6c-0.7-0.4-1.3-0.9-1.6-1.6c-0.4-0.7-0.6-1.4-0.6-2.3
		c0-0.8,0.2-1.6,0.6-2.3c0.4-0.7,0.9-1.2,1.6-1.6c0.7-0.4,1.4-0.6,2.2-0.6c0.8,0,1.6,0.2,2.2,0.6c0.7,0.4,1.2,0.9,1.5,1.6
		c0.4,0.7,0.5,1.5,0.5,2.3C27.7,27.5,27.7,27.7,27.6,27.8z M21.5,24.9c-0.5,0.5-0.8,1.1-0.9,1.8h5.6c-0.1-0.7-0.4-1.3-0.9-1.8
		c-0.5-0.5-1.1-0.7-1.9-0.7C22.6,24.2,22,24.5,21.5,24.9z"/>
</g>
</svg>
