<?xml version="1.0" encoding="utf-8"?>
<!-- Generator: Adobe Illustrator 21.0.0, SVG Export Plug-In . SVG Version: 6.00 Build 0)  -->
<svg version="1.1" id="Layer_1" xmlns="http://www.w3.org/2000/svg" xmlns:xlink="http://www.w3.org/1999/xlink" x="0px" y="0px"
	 viewBox="0 0 50 50" style="enable-background:new 0 0 50 50;" xml:space="preserve">
<style type="text/css">
	.st0{fill:#082E40;}
	.st1{opacity:0.3;}
	.st2{fill:#FFFFFF;}
	.st3{fill:#F06C16;}
	.st4{fill:#41C3AC;}
</style>
<path class="st0" d="M47.5,25c0,0.1,0,0.1,0,0.2c0,0,0,0.1,0,0.1C47.3,36.2,39.4,45.3,29,47.1c-0.4,0.1-0.9,0.1-1.3,0.2
	c-0.9,0.1-1.8,0.2-2.7,0.2C12.6,47.5,2.5,37.4,2.5,25C2.5,12.6,12.6,2.5,25,2.5C37.4,2.5,47.5,12.6,47.5,25z"/>
<path class="st1" d="M47.5,25.2c0,0,0,0.1,0,0.1C47.3,36.2,39.4,45.3,29,47.1c-0.4,0.1-0.9,0.1-1.3,0.2l-15.8-11l13-9.8V13.7l2-5.4
	L47.5,25.2z"/>
<circle class="st2" cx="24.9" cy="10.9" r="3.3"/>
<path class="st2" d="M20.4,20.7h8.9c0.8,0,1.4-0.7,1.4-1.5v-0.4c0-1.1-0.5-2.1-1.4-2.6c-1-0.6-2.7-1.3-4.5-1.3
	c-1.8,0-3.4,0.7-4.5,1.3c-0.9,0.5-1.4,1.5-1.4,2.6v0.4C19,20,19.6,20.7,20.4,20.7z"/>
<circle class="st3" cx="16.4" cy="26.5" r="3.3"/>
<path class="st3" d="M20.9,31.8c-1-0.6-2.7-1.3-4.5-1.3c-1.8,0-3.4,0.7-4.5,1.3c-0.9,0.5-1.4,1.5-1.4,2.6v0.4c0,0.8,0.6,1.5,1.4,1.5
	h8.9c0.8,0,1.4-0.7,1.4-1.5v-0.4C22.3,33.3,21.7,32.3,20.9,31.8z"/>
<circle class="st4" cx="33.4" cy="26.5" r="3.3"/>
<path class="st4" d="M37.8,31.8c-1-0.6-2.7-1.3-4.5-1.3c-1.8,0-3.4,0.7-4.5,1.3c-0.9,0.5-1.4,1.5-1.4,2.6v0.4c0,0.8,0.6,1.5,1.4,1.5
	h8.9c0.8,0,1.4-0.7,1.4-1.5v-0.4C39.2,33.3,38.7,32.3,37.8,31.8z"/>
<path class="st2" d="M28.1,29.8c0.2,0,0.4-0.1,0.5-0.2c0.2-0.3,0.2-0.7-0.1-0.9l-3-2.4v-3.6c0-0.4-0.3-0.7-0.7-0.7s-0.7,0.3-0.7,0.7
	v3.6l-3,2.4c-0.3,0.2-0.3,0.6-0.1,0.9c0.1,0.2,0.3,0.2,0.5,0.2c0.1,0,0.3,0,0.4-0.1l2.9-2.3l2.9,2.3C27.9,29.8,28,29.8,28.1,29.8z"
	/>
</svg>
