<?xml version="1.0" encoding="utf-8"?>
<!-- Generator: Adobe Illustrator 21.0.0, SVG Export Plug-In . SVG Version: 6.00 Build 0)  -->
<svg version="1.1" id="Layer_1" xmlns="http://www.w3.org/2000/svg" xmlns:xlink="http://www.w3.org/1999/xlink" x="0px" y="0px"
	 viewBox="0 0 100 50" style="enable-background:new 0 0 100 50;" xml:space="preserve">
<style type="text/css">
	.st0{fill:#FFFFFF;}
	.st1{fill:#D8D8D8;}
	.st2{fill:#1C96BD;}
	.st3{fill:#41C3AC;}
	.st4{fill:#32526E;}
	.st5{fill:#81B9C3;}
	.st6{fill:#F16D17;}
	.st7{fill:#D3DCDD;}
	.st8{fill:#FF6B57;}
	.st9{fill:#E8E8E8;}
	.st10{fill:#88A5BA;}
	.st11{opacity:0.7;}
	.st12{opacity:0.5;fill:none;stroke:#FFFFFF;stroke-width:0.5;stroke-miterlimit:10;}
	.st13{fill:#041419;}
	.st14{opacity:0.5;fill:#FFFFFF;}
	.st15{opacity:0.5;}
</style>
<rect x="50.3" y="43.2" class="st0" width="3.7" height="1.7"/>
<rect x="50.3" y="38.7" class="st1" width="3.7" height="4.5"/>
<rect x="49" y="45.2" class="st0" width="6.3" height="0.5"/>
<rect x="49" y="44.9" class="st1" width="6.3" height="0.3"/>
<path class="st2" d="M67.9,18.2v20.2H36.4V18.2c0-0.3,0.3-0.6,0.6-0.6h30.3C67.6,17.5,67.9,17.8,67.9,18.2z"/>
<path class="st0" d="M67.9,38.3v2.8c0,0.3-0.3,0.6-0.6,0.6H37c-0.3,0-0.6-0.3-0.6-0.6v-2.8H67.9z"/>
<rect x="37.8" y="18.9" class="st0" width="28.7" height="18.2"/>
<circle class="st1" cx="52.3" cy="39.8" r="0.6"/>
<rect x="39.2" y="22.7" class="st3" width="25.8" height="5.8"/>
<rect x="39.4" y="29.4" class="st4" width="5.3" height="1"/>
<rect x="39.4" y="20.9" class="st3" width="2.6" height="0.4"/>
<rect x="43.7" y="20.9" class="st5" width="2.6" height="0.4"/>
<rect x="47.7" y="20.9" class="st5" width="2.6" height="0.4"/>
<rect x="51.7" y="20.9" class="st5" width="2.6" height="0.4"/>
<rect x="55.5" y="20.9" class="st5" width="2.6" height="0.4"/>
<rect x="46.2" y="29.4" class="st6" width="5.3" height="1"/>
<rect x="52.8" y="29.4" class="st4" width="5.3" height="1"/>
<rect x="59.7" y="29.4" class="st6" width="5.3" height="1"/>
<rect x="39.4" y="31.3" class="st7" width="5.3" height="0.3"/>
<rect x="39.4" y="32.1" class="st7" width="5.3" height="0.3"/>
<rect x="39.4" y="32.8" class="st7" width="5.3" height="0.3"/>
<rect x="39.4" y="33.5" class="st7" width="5.3" height="0.3"/>
<rect x="39.4" y="34.2" class="st7" width="5.3" height="0.3"/>
<rect x="39.4" y="35" class="st7" width="5.3" height="0.3"/>
<rect x="39.4" y="35.7" class="st7" width="5.3" height="0.3"/>
<rect x="46.2" y="31.3" class="st7" width="5.3" height="0.3"/>
<rect x="46.2" y="32.1" class="st7" width="5.3" height="0.3"/>
<rect x="46.2" y="32.8" class="st7" width="5.3" height="0.3"/>
<rect x="46.2" y="33.5" class="st7" width="5.3" height="0.3"/>
<rect x="46.2" y="34.2" class="st7" width="5.3" height="0.3"/>
<rect x="46.2" y="35" class="st7" width="5.3" height="0.3"/>
<rect x="46.2" y="35.7" class="st7" width="5.3" height="0.3"/>
<rect x="52.8" y="31.3" class="st7" width="5.3" height="0.3"/>
<rect x="52.8" y="32.1" class="st7" width="5.3" height="0.3"/>
<rect x="52.8" y="32.8" class="st7" width="5.3" height="0.3"/>
<rect x="52.8" y="33.5" class="st7" width="5.3" height="0.3"/>
<rect x="52.8" y="34.2" class="st7" width="5.3" height="0.3"/>
<rect x="52.8" y="35" class="st7" width="5.3" height="0.3"/>
<rect x="52.8" y="35.7" class="st7" width="5.3" height="0.3"/>
<rect x="59.7" y="31.3" class="st7" width="5.3" height="0.3"/>
<rect x="59.7" y="32.1" class="st7" width="5.3" height="0.3"/>
<rect x="59.7" y="32.8" class="st7" width="5.3" height="0.3"/>
<rect x="59.7" y="33.5" class="st7" width="5.3" height="0.3"/>
<rect x="59.7" y="34.2" class="st7" width="5.3" height="0.3"/>
<rect x="59.7" y="35" class="st7" width="5.3" height="0.3"/>
<rect x="59.7" y="35.7" class="st7" width="5.3" height="0.3"/>
<path class="st2" d="M33.1,45.3c0,0.4-0.3,0.7-0.7,0.7H16.2c-0.4,0-0.7-0.3-0.7-0.7v-12c0-0.4,0.3-0.7,0.7-0.7h16.1
	c0.4,0,0.7,0.3,0.7,0.7V45.3z"/>
<rect x="16.3" y="33.5" class="st0" width="15.8" height="11.5"/>
<rect x="17" y="35.4" class="st3" width="14.4" height="3.6"/>
<rect x="17" y="34.3" class="st3" width="2.2" height="0.4"/>
<rect x="17" y="39.8" class="st4" width="3.3" height="0.4"/>
<rect x="20.7" y="39.8" class="st6" width="3.3" height="0.4"/>
<rect x="24.5" y="39.8" class="st4" width="3.3" height="0.4"/>
<rect x="28.1" y="39.8" class="st6" width="3.3" height="0.4"/>
<rect x="20" y="34.3" class="st5" width="2.2" height="0.4"/>
<rect x="22.9" y="34.3" class="st5" width="2.2" height="0.4"/>
<rect x="26" y="34.3" class="st5" width="2.2" height="0.4"/>
<rect x="28.9" y="34.3" class="st5" width="2.2" height="0.4"/>
<rect x="17" y="40.9" class="st7" width="3.3" height="0.2"/>
<rect x="17" y="41.3" class="st7" width="3.3" height="0.2"/>
<rect x="17" y="41.8" class="st7" width="3.3" height="0.2"/>
<rect x="17" y="42.2" class="st7" width="3.3" height="0.2"/>
<rect x="17" y="42.7" class="st7" width="3.3" height="0.2"/>
<rect x="17" y="43.1" class="st7" width="3.3" height="0.2"/>
<rect x="17" y="43.6" class="st7" width="3.3" height="0.2"/>
<rect x="20.7" y="40.9" class="st7" width="3.3" height="0.2"/>
<rect x="20.7" y="41.3" class="st7" width="3.3" height="0.2"/>
<rect x="20.7" y="41.8" class="st7" width="3.3" height="0.2"/>
<rect x="20.7" y="42.2" class="st7" width="3.3" height="0.2"/>
<rect x="20.7" y="42.7" class="st7" width="3.3" height="0.2"/>
<rect x="20.7" y="43.1" class="st7" width="3.3" height="0.2"/>
<rect x="20.7" y="43.6" class="st7" width="3.3" height="0.2"/>
<rect x="24.5" y="40.9" class="st7" width="3.3" height="0.2"/>
<rect x="24.5" y="41.3" class="st7" width="3.3" height="0.2"/>
<rect x="24.5" y="41.8" class="st7" width="3.3" height="0.2"/>
<rect x="24.5" y="42.2" class="st7" width="3.3" height="0.2"/>
<rect x="24.5" y="42.7" class="st7" width="3.3" height="0.2"/>
<rect x="24.5" y="43.1" class="st7" width="3.3" height="0.2"/>
<rect x="24.5" y="43.6" class="st7" width="3.3" height="0.2"/>
<rect x="28.2" y="40.9" class="st7" width="3.3" height="0.2"/>
<rect x="28.2" y="41.3" class="st7" width="3.3" height="0.2"/>
<rect x="28.2" y="41.8" class="st7" width="3.3" height="0.2"/>
<rect x="28.2" y="42.2" class="st7" width="3.3" height="0.2"/>
<rect x="28.2" y="42.7" class="st7" width="3.3" height="0.2"/>
<rect x="28.2" y="43.1" class="st7" width="3.3" height="0.2"/>
<rect x="28.2" y="43.6" class="st7" width="3.3" height="0.2"/>
<g>
	<path class="st2" d="M79.2,42.9c0,1.7-1.3,3-3,3h-1.1c-1.7,0-3-1.3-3-3v-5.3c0-1.7,1.3-3,3-3h1.1c1.7,0,3,1.3,3,3V42.9z"/>
</g>
<rect x="72.4" y="35.4" class="st0" width="6.4" height="9.5"/>
<rect x="72.6" y="37" class="st3" width="5.9" height="2.7"/>
<rect x="75.8" y="35.8" class="st3" width="1.2" height="0.3"/>
<rect x="72.6" y="35.9" class="st3" width="0.6" height="0.5"/>
<rect x="77.4" y="35.8" class="st5" width="1.2" height="0.3"/>
<rect x="72.7" y="40.3" class="st4" width="1.4" height="1.4"/>
<rect x="72.7" y="42.3" class="st6" width="1.4" height="1.4"/>
<rect x="74.5" y="40.3" class="st7" width="4" height="0.2"/>
<rect x="74.5" y="40.6" class="st7" width="4" height="0.2"/>
<rect x="74.5" y="41" class="st7" width="4" height="0.2"/>
<rect x="74.5" y="41.4" class="st7" width="4" height="0.2"/>
<rect x="74.5" y="42.3" class="st7" width="4" height="0.2"/>
<rect x="74.5" y="42.7" class="st7" width="4" height="0.2"/>
<rect x="74.5" y="43.1" class="st7" width="4" height="0.2"/>
<rect x="74.5" y="43.4" class="st7" width="4" height="0.2"/>
<rect x="80.7" y="39.8" class="st0" width="8.8" height="6"/>
<rect x="80.7" y="38.2" class="st2" width="8.8" height="1.6"/>
<rect x="81.4" y="40.6" class="st8" width="7.2" height="1.8"/>
<rect x="87" y="43.2" class="st3" width="1.6" height="1.6"/>
<rect x="81.4" y="43.2" class="st7" width="4.8" height="0.2"/>
<rect x="81.4" y="43.6" class="st7" width="4.8" height="0.2"/>
<rect x="81.4" y="44" class="st7" width="4.8" height="0.2"/>
<rect x="81.4" y="44.4" class="st7" width="4.8" height="0.2"/>
<circle class="st0" cx="81.4" cy="39" r="0.2"/>
<circle class="st0" cx="82" cy="39" r="0.2"/>
<polygon class="st9" points="79.2,26.2 79.2,27.2 75.7,29.6 72.1,27.2 72.1,26.2 "/>
<circle class="st0" cx="82.7" cy="39" r="0.2"/>
<rect x="73" y="23.1" class="st0" width="5.3" height="7.9"/>
<polygon class="st2" points="79.2,27.2 79.2,31.7 72.1,31.7 72.1,27.2 75.6,29.6 "/>
<rect x="73.5" y="23.8" class="st8" width="4.3" height="1"/>
<rect x="73.5" y="25.3" class="st4" width="1.1" height="1.1"/>
<rect x="73.5" y="26.9" class="st6" width="1.1" height="1.1"/>
<rect x="75" y="25.3" class="st7" width="2.8" height="0.3"/>
<rect x="75" y="25.7" class="st7" width="2.8" height="0.3"/>
<rect x="75" y="26.9" class="st7" width="2.8" height="0.3"/>
<rect x="75" y="27.3" class="st7" width="2.8" height="0.3"/>
<rect x="80.7" y="23.1" class="st0" width="8.3" height="8.6"/>
<rect x="81.2" y="23.8" class="st3" width="7.1" height="6.1"/>
<circle class="st4" cx="84.2" cy="30.8" r="0.2"/>
<circle class="st10" cx="84.8" cy="30.8" r="0.2"/>
<circle class="st10" cx="85.4" cy="30.8" r="0.2"/>
<g class="st11">
	<path class="st0" d="M83.6,27.3C83.6,27.3,83.6,27.3,83.6,27.3C83.5,27.4,83.6,27.4,83.6,27.3l0.7,0.5c0,0,0,0,0,0c0,0,0,0,0,0
		c0,0,0-0.1,0-0.1L83.6,27.3z"/>
	<path class="st0" d="M84.1,27.3C84.1,27.3,84.1,27.3,84.1,27.3C84.1,27.3,84.1,27.3,84.1,27.3C84.1,27.3,84.1,27.3,84.1,27.3
		L83.6,27c0,0-0.1,0-0.1,0c0,0,0,0.1,0,0.1L84.1,27.3z"/>
	<path class="st0" d="M84.8,25.5l-1.6,0.9v1.3l1.6,0.9l1.6-0.9v-1.3L84.8,25.5z M86.2,26.4l-0.6,0.4l-1.4-0.8l0.6-0.3L86.2,26.4z
		 M84.8,27.2l-1.4-0.8l0.7-0.4l1.4,0.8L84.8,27.2z M83.3,26.5l1.4,0.8v1.1c0,0,0,0,0,0l-1.4-0.8V26.5z M84.8,28.4
		C84.8,28.3,84.8,28.3,84.8,28.4l0-1.1l1.4-0.8v1.1L84.8,28.4z"/>
</g>
<rect x="64.5" y="12.1" class="st0" width="5.6" height="3.6"/>
<polygon class="st0" points="65.6,15.7 65.2,16.8 66.5,15.7 "/>
<rect x="65.3" y="12.9" class="st5" width="4.1" height="0.4"/>
<rect x="65.3" y="13.7" class="st5" width="4.1" height="0.4"/>
<rect x="65.3" y="14.5" class="st5" width="4.1" height="0.4"/>
<g>
	<ellipse class="st0" cx="70.9" cy="12.7" rx="0.3" ry="1.4"/>
</g>
<circle class="st0" cx="70.9" cy="14.6" r="0.3"/>
<rect x="17.8" y="20.8" class="st2" width="8.7" height="5.9"/>
<rect x="17.8" y="26.8" class="st0" width="8.7" height="1.6"/>
<g>
	<g>
		<path class="st0" d="M22.7,23.9l-0.8-0.5c-0.1-0.1-0.2,0-0.2,0.1v1c0,0.1,0.1,0.1,0.2,0.1l0.8-0.5C22.8,24,22.8,23.9,22.7,23.9z"
			/>
		<path class="st0" d="M23.2,22.7h-2.1c-0.2,0-0.3,0.1-0.3,0.3v1.8c0,0.2,0.2,0.3,0.3,0.3h2.1c0.2,0,0.3-0.1,0.3-0.3v-1.8
			C23.6,22.9,23.4,22.7,23.2,22.7z M23.4,24.9c0,0.1-0.1,0.1-0.1,0.1h-2.1C21,25,21,24.9,21,24.9v-1.8c0-0.1,0.1-0.1,0.1-0.1h2.1
			c0.1,0,0.1,0.1,0.1,0.1V24.9z"/>
	</g>
</g>
<rect x="18.4" y="27.5" class="st8" width="1.5" height="0.2"/>
<rect x="19.8" y="27.5" class="st5" width="6.2" height="0.2"/>
<circle class="st4" cx="19.8" cy="27.6" r="0.3"/>
<circle class="st3" cx="24.3" cy="21.5" r="0.2"/>
<circle class="st5" cx="25" cy="21.5" r="0.2"/>
<circle class="st8" cx="25.7" cy="21.5" r="0.2"/>
<rect x="14.9" y="9.9" class="st0" width="12.5" height="7.6"/>
<polygon class="st0" points="23.7,17.6 25.4,19 25.4,17.6 "/>
<polygon class="st6" points="19.1,12.6 18.6,12.8 18.7,12.3 18.4,12 18.8,11.9 19.1,11.5 19.3,11.9 19.7,12 19.4,12.3 19.5,12.8 "/>
<polygon class="st4" points="21.2,12.6 20.8,12.8 20.8,12.3 20.5,12 21,11.9 21.2,11.5 21.4,11.9 21.9,12 21.5,12.3 21.6,12.8 "/>
<polygon class="st3" points="23.2,12.6 22.8,12.8 22.9,12.3 22.5,12 23,11.9 23.2,11.5 23.4,11.9 23.9,12 23.6,12.3 23.6,12.8 "/>
<rect x="16.1" y="14.3" class="st7" width="7.8" height="0.4"/>
<rect x="16.1" y="15.8" class="st7" width="6.4" height="0.4"/>
<rect x="16.1" y="15.1" class="st7" width="3.9" height="0.4"/>
<rect x="20.5" y="15.1" class="st7" width="3.9" height="0.4"/>
<circle class="st12" cx="69.7" cy="25.7" r="0.4"/>
<circle class="st12" cx="69.7" cy="26.9" r="0.4"/>
<circle class="st12" cx="69.7" cy="28.1" r="0.4"/>
<circle class="st12" cx="39" cy="13.7" r="0.4"/>
<circle class="st12" cx="40.2" cy="13.7" r="0.4"/>
<circle class="st12" cx="41.3" cy="13.7" r="0.4"/>
<circle class="st12" cx="92.6" cy="42.2" r="0.9"/>
<circle class="st12" cx="12.9" cy="36" r="0.9"/>
<circle class="st12" cx="75.6" cy="10" r="0.9"/>
<circle class="st13" cx="69.7" cy="35.5" r="0.4"/>
<circle class="st13" cx="69.7" cy="36.6" r="0.4"/>
<circle class="st13" cx="69.7" cy="37.7" r="0.4"/>
<circle class="st14" cx="91.6" cy="20.2" r="0.4"/>
<circle class="st14" cx="91.6" cy="21.8" r="0.4"/>
<circle class="st14" cx="91.6" cy="23.4" r="0.4"/>
<circle class="st14" cx="91.6" cy="25.1" r="0.4"/>
<circle class="st14" cx="91.6" cy="26.7" r="0.4"/>
<circle class="st14" cx="91.6" cy="28.3" r="0.4"/>
<circle class="st14" cx="91.6" cy="29.9" r="0.4"/>
<circle class="st14" cx="91.6" cy="31.4" r="0.4"/>
<circle class="st14" cx="91.6" cy="33.1" r="0.4"/>
<path class="st14" d="M32.9,13.1c0,0.1,0,0.1-0.1,0.1l0,0c-0.1,0-0.1,0-0.1-0.1v-1.5c0-0.1,0-0.1,0.1-0.1l0,0c0.1,0,0.1,0,0.1,0.1
	V13.1z"/>
<path class="st14" d="M33.5,12.2c0.1,0,0.1,0,0.1,0.1l0,0c0,0.1,0,0.1-0.1,0.1h-1.5c-0.1,0-0.1,0-0.1-0.1l0,0c0-0.1,0-0.1,0.1-0.1
	H33.5z"/>
<path class="st14" d="M11.7,30c0,0.1-0.1,0.1-0.1,0.1l0,0c-0.1,0-0.1-0.1-0.1-0.1v-1.9c0-0.1,0.1-0.1,0.1-0.1l0,0
	c0.1,0,0.1,0.1,0.1,0.1V30z"/>
<path class="st14" d="M12.5,29c0.1,0,0.1,0.1,0.1,0.1l0,0c0,0.1-0.1,0.1-0.1,0.1h-1.9c-0.1,0-0.1-0.1-0.1-0.1l0,0
	c0-0.1,0.1-0.1,0.1-0.1H12.5z"/>
<path class="st14" d="M83.9,36.3C83.9,36.4,83.9,36.4,83.9,36.3L83.9,36.3c-0.1,0.1-0.2,0-0.2,0V35c0,0,0-0.1,0.1-0.1l0,0
	c0,0,0.1,0,0.1,0.1V36.3z"/>
<path class="st14" d="M84.4,35.6C84.5,35.6,84.5,35.6,84.4,35.6L84.4,35.6c0.1,0.1,0,0.2,0,0.2h-1.3c0,0-0.1,0-0.1-0.1l0,0
	c0,0,0-0.1,0.1-0.1H84.4z"/>
<g class="st15">
	<polygon class="st0" points="92.6,35.2 90.3,35.2 90.3,18.9 88.3,18.9 88.3,18.5 90.8,18.5 90.8,34.8 92.6,34.8 	"/>
</g>
<g class="st15">
	<polygon class="st0" points="35.1,37.4 33.9,37.4 33.9,37 34.8,37 34.8,29.4 35.1,29.4 	"/>
</g>
<rect x="32.1" y="22.7" class="st13" width="0.6" height="3.8"/>
<rect x="31.3" y="24" class="st13" width="0.6" height="2.6"/>
<rect x="29.5" y="24.6" class="st13" width="0.6" height="1.9"/>
<rect x="30.4" y="22.1" class="st13" width="0.6" height="4.5"/>
<rect x="13.2" y="22.1" class="st14" width="0.6" height="4.5"/>
<rect x="14.1" y="23.4" class="st14" width="0.6" height="3.1"/>
<rect x="12.3" y="22.6" class="st14" width="0.6" height="3.9"/>
<rect x="10.6" y="25.2" class="st14" width="0.6" height="1.4"/>
<rect x="15" y="24.8" class="st14" width="0.6" height="1.7"/>
<rect x="11.4" y="24.1" class="st14" width="0.6" height="2.5"/>
<circle class="st14" cx="65.8" cy="7.3" r="0.4"/>
<circle class="st14" cx="67.4" cy="7.3" r="0.4"/>
<circle class="st14" cx="68.9" cy="7.3" r="0.4"/>
<circle class="st14" cx="65.8" cy="8.8" r="0.4"/>
<circle class="st14" cx="67.4" cy="8.8" r="0.4"/>
<circle class="st14" cx="68.9" cy="8.8" r="0.4"/>
<circle class="st14" cx="65.8" cy="10.4" r="0.4"/>
<circle class="st14" cx="67.4" cy="10.4" r="0.4"/>
<circle class="st14" cx="68.9" cy="10.4" r="0.4"/>
<g>
	<g id="_x33_56._Play">
		<g>
			<path class="st13" d="M86.3,17.4c-0.6-1-1.9-1.4-3-0.8c-1,0.6-1.4,1.9-0.8,3c0.6,1,1.9,1.4,3,0.8C86.5,19.8,86.9,18.4,86.3,17.4z
				 M85.3,20c-0.8,0.5-1.9,0.2-2.4-0.6c-0.5-0.8-0.2-1.9,0.6-2.4c0.8-0.5,1.9-0.2,2.4,0.6C86.4,18.4,86.1,19.5,85.3,20z M85.2,18.4
				L84,17.7c-0.1-0.1-0.2,0-0.2,0.1l0,1.3c0,0.1,0.1,0.2,0.2,0.1l1.1-0.7C85.3,18.5,85.3,18.4,85.2,18.4z"/>
		</g>
	</g>
</g>
<polygon class="st13" points="50.8,14.2 43.7,14.2 45.6,11.5 46,12 47.1,10.6 47.9,11.5 48.7,9.9 "/>
<g class="st15">
	<polygon class="st0" points="56.1,11.3 55.1,13.6 54.9,13.6 55.9,11.3 	"/>
	<polygon class="st0" points="57.5,11.3 56.5,13.6 56.2,13.6 57.2,11.3 	"/>
	<polygon class="st0" points="58.9,11.3 58,13.6 57.7,13.6 58.7,11.3 	"/>
	<polygon class="st0" points="60.3,11.3 59.3,13.6 59.1,13.6 60.1,11.3 	"/>
	<polygon class="st0" points="61.6,11.3 60.6,13.6 60.4,13.6 61.4,11.3 	"/>
</g>
<polygon class="st2" points="74.7,14.1 76.6,13.9 76.6,16.3 75.9,16.2 75.9,18.1 75,18.1 75,16.1 74.7,16 "/>
<path class="st6" d="M73.8,14.5v1.1c0,0.1,0.1,0.2,0.2,0.2h0.7v-1.6H74C73.9,14.3,73.8,14.4,73.8,14.5z"/>
<polygon class="st6" points="76.6,13.9 76.6,16.3 78.1,17.1 78.1,13 "/>
<rect x="78.1" y="12.7" class="st0" width="0.3" height="4.7"/>
<path class="st6" d="M78.4,14.5L78.4,14.5l0,1.2h0c0.3,0,0.6-0.3,0.6-0.6C79,14.8,78.7,14.5,78.4,14.5z"/>
<rect x="75" y="14.4" class="st0" width="1.2" height="0.2"/>
<path class="st3" d="M40.1,8.4c0,0.3-0.1,0.6-0.3,0.9l0.9,0.9c0.4-0.5,0.6-1.1,0.6-1.8c0-0.7-0.2-1.3-0.6-1.8l-0.9,0.9
	C40,7.8,40.1,8.1,40.1,8.4L40.1,8.4z M40.1,8.4"/>
<path class="st2" d="M39.4,9.7c-0.3,0.2-0.6,0.3-0.9,0.3c-0.8,0-1.4-0.6-1.6-1.3h-1.3c0.1,1.5,1.4,2.6,2.9,2.6
	c0.7,0,1.3-0.2,1.8-0.6L39.4,9.7z M39.4,9.7"/>
<path class="st6" d="M36.9,8.1c0.1-0.7,0.8-1.3,1.6-1.3c0.3,0,0.6,0.1,0.9,0.3l0.9-0.9c-0.5-0.4-1.1-0.6-1.8-0.6
	c-1.5,0-2.7,1.1-2.9,2.6H36.9z M36.9,8.1"/>
<g>
	<g id="Layer_1_110_">
		<g>
			<path class="st13" d="M29.8,4.2l-0.4-0.4c0-0.1,0.1-0.2,0.1-0.3c0-0.3-0.3-0.6-0.6-0.6c-0.3,0-0.6,0.3-0.6,0.6
				c0,0.3,0.3,0.6,0.6,0.6c0.1,0,0.2,0,0.3-0.1l0.4,0.4C29.6,4.3,29.7,4.2,29.8,4.2z"/>
			<path class="st13" d="M31.5,4.1l0.5-0.9c0.1,0,0.1,0,0.2,0c0.3,0,0.6-0.3,0.6-0.6c0-0.3-0.3-0.6-0.6-0.6c-0.3,0-0.6,0.3-0.6,0.6
				c0,0.2,0.1,0.3,0.2,0.4L31.3,4C31.3,4,31.4,4,31.5,4.1z"/>
			<path class="st13" d="M33.4,4.9c-0.3,0-0.5,0.2-0.6,0.4l-0.8-0.1c0,0,0,0,0,0c0,0.1,0,0.2,0,0.3l0.8,0.1c0,0.3,0.3,0.5,0.6,0.5
				c0.3,0,0.6-0.3,0.6-0.6C34,5.1,33.7,4.9,33.4,4.9z"/>
			<path class="st13" d="M31.3,7.3l-0.2-0.7c-0.1,0-0.2,0.1-0.3,0.1L31,7.3c-0.2,0.1-0.3,0.3-0.3,0.5c0,0.3,0.3,0.6,0.6,0.6
				c0.3,0,0.6-0.3,0.6-0.6C31.9,7.5,31.6,7.3,31.3,7.3z"/>
			<path class="st13" d="M29.3,5.5l-0.9,0.3c-0.1-0.2-0.3-0.3-0.5-0.3c-0.3,0-0.6,0.3-0.6,0.6c0,0.3,0.3,0.6,0.6,0.6
				c0.3,0,0.6-0.3,0.6-0.6c0,0,0,0,0,0l0.9-0.3C29.4,5.7,29.3,5.6,29.3,5.5z"/>
			<circle class="st13" cx="30.7" cy="5.2" r="1"/>
		</g>
	</g>
</g>
<g class="st15">
	<g>
		<path class="st0" d="M62,4.5l-0.4-0.1c0-0.1-0.1-0.3-0.2-0.4l0.2-0.3c0.1-0.1,0.1-0.3,0-0.5l-0.4-0.4c-0.1-0.1-0.2-0.1-0.3-0.1
			c-0.1,0-0.1,0-0.2,0.1l-0.3,0.2C60.4,3,60.3,3,60.1,2.9l-0.1-0.4c0-0.2-0.2-0.3-0.4-0.3h-0.5c-0.2,0-0.3,0.1-0.4,0.3l-0.1,0.4
			c-0.1,0-0.3,0.1-0.4,0.2l-0.3-0.2c-0.1,0-0.1-0.1-0.2-0.1c-0.1,0-0.2,0-0.3,0.1l-0.4,0.4c-0.1,0.1-0.1,0.3,0,0.5L57.4,4
			c-0.1,0.1-0.1,0.3-0.2,0.4l-0.4,0.1c-0.2,0-0.3,0.2-0.3,0.4v0.5c0,0.2,0.1,0.3,0.3,0.4l0.4,0.1c0,0.1,0.1,0.3,0.2,0.4l-0.2,0.3
			c-0.1,0.1-0.1,0.3,0,0.5l0.4,0.4c0.1,0.1,0.2,0.1,0.3,0.1c0.1,0,0.1,0,0.2-0.1l0.3-0.2c0.1,0.1,0.2,0.1,0.4,0.2l0.1,0.4
			C58.9,7.8,59,8,59.2,8h0.5c0.2,0,0.3-0.1,0.4-0.3l0.1-0.4c0.1,0,0.3-0.1,0.4-0.2l0.3,0.2c0.1,0,0.1,0.1,0.2,0.1l0,0
			c0.1,0,0.2,0,0.3-0.1l0.4-0.4c0.1-0.1,0.1-0.3,0-0.5l-0.2-0.3c0.1-0.1,0.1-0.3,0.2-0.4L62,5.7c0.2,0,0.3-0.2,0.3-0.4V4.8
			C62.3,4.7,62.2,4.5,62,4.5z M62,5.3C62,5.4,62,5.4,62,5.3l-0.5,0.1c-0.1,0-0.1,0.1-0.1,0.1c0,0.2-0.1,0.3-0.2,0.5
			c0,0.1,0,0.1,0,0.2l0.3,0.4c0,0,0,0,0,0l-0.4,0.4c0,0,0,0,0,0c0,0,0,0,0,0l-0.4-0.3c-0.1,0-0.1,0-0.2,0C60.3,6.9,60.1,6.9,60,7
			c-0.1,0-0.1,0.1-0.1,0.1l-0.1,0.5c0,0,0,0,0,0h-0.5c0,0,0,0,0,0l-0.1-0.5C59.1,7,59,7,59,7c-0.2,0-0.3-0.1-0.5-0.2
			c0,0-0.1,0-0.1,0c0,0-0.1,0-0.1,0l-0.4,0.3c0,0,0,0,0,0c0,0,0,0,0,0l-0.4-0.4c0,0,0,0,0,0l0.3-0.4c0-0.1,0-0.1,0-0.2
			c-0.1-0.2-0.2-0.3-0.2-0.5c0-0.1-0.1-0.1-0.1-0.1l-0.5-0.1c0,0,0,0,0,0V4.8c0,0,0,0,0,0l0.5-0.1c0.1,0,0.1-0.1,0.1-0.1
			c0-0.2,0.1-0.3,0.2-0.5c0-0.1,0-0.1,0-0.2l-0.3-0.4c0,0,0,0,0,0l0.4-0.4c0,0,0,0,0,0c0,0,0,0,0,0l0.4,0.3c0.1,0,0.1,0,0.2,0
			c0.2-0.1,0.3-0.2,0.5-0.2c0.1,0,0.1-0.1,0.1-0.1l0.1-0.5c0,0,0,0,0,0h0.5c0,0,0,0,0,0l0.1,0.5c0,0.1,0.1,0.1,0.1,0.1
			c0.2,0,0.4,0.1,0.5,0.2c0.1,0,0.1,0,0.2,0L61,3.1c0,0,0,0,0,0c0,0,0,0,0,0l0.4,0.4c0,0,0,0,0,0l-0.3,0.4c0,0.1,0,0.1,0,0.2
			c0.1,0.2,0.2,0.3,0.2,0.5c0,0.1,0.1,0.1,0.1,0.1L62,4.8c0,0,0,0,0,0L62,5.3L62,5.3z"/>
		<path class="st0" d="M59.5,3.8c-0.7,0-1.2,0.6-1.2,1.2c0,0.7,0.6,1.2,1.2,1.2c0.7,0,1.2-0.6,1.2-1.2C60.7,4.4,60.2,3.8,59.5,3.8z
			 M59.5,6c-0.5,0-0.9-0.4-0.9-0.9c0-0.5,0.4-0.9,0.9-0.9c0.5,0,0.9,0.4,0.9,0.9C60.4,5.6,60,6,59.5,6z"/>
	</g>
</g>
</svg>
