<?xml version="1.0" encoding="utf-8"?>
<!-- Generator: Adobe Illustrator 21.0.0, SVG Export Plug-In . SVG Version: 6.00 Build 0)  -->
<svg version="1.1" id="Layer_1" xmlns="http://www.w3.org/2000/svg" xmlns:xlink="http://www.w3.org/1999/xlink" x="0px" y="0px"
	 viewBox="0 0 50 50" style="enable-background:new 0 0 50 50;" xml:space="preserve">
<style type="text/css">
	.st0{fill:#082E40;}
	.st1{opacity:0.3;}
	.st2{fill:#F06C16;}
	.st3{fill:#1C95BC;}
	.st4{fill:#FFFFFF;}
</style>
<path class="st0" d="M47.5,25c0,0.1,0,0.1,0,0.2c0,0,0,0.1,0,0.1C47.3,36.2,39.4,45.3,29,47.1c-0.4,0.1-0.9,0.1-1.3,0.2
	c-0.9,0.1-1.8,0.2-2.7,0.2C12.6,47.5,2.5,37.4,2.5,25C2.5,12.6,12.6,2.5,25,2.5C37.4,2.5,47.5,12.6,47.5,25z"/>
<path class="st1" d="M47.5,25.2c0,0,0,0.1,0,0.1C47.3,36.2,39.4,45.3,29,47.1c-0.4,0.1-0.9,0.1-1.3,0.2L13.3,37l11.6-10.5l10.4,1.4
	l1.1-11.8L47.5,25.2z"/>
<path class="st2" d="M14,28.9v-3.9h-2c-0.7,0-1.3,0.6-1.3,1.3v7.4c0,0.8,0.6,1.3,1.3,1.3h1.1v1.6c0,0.2,0.2,0.4,0.4,0.4
	c0.1,0,0.2,0,0.3-0.1l1.9-1.9h8.2c0.7,0,1.3-0.6,1.3-1.3V32H17C15.3,32,14,30.6,14,28.9z"/>
<path class="st3" d="M35.2,15.6H17c-1.1,0-2,0.9-2,2v11.3c0,1.1,0.9,2,2,2h12.5l2.8,2.9c0.1,0.1,0.3,0.2,0.4,0.2
	c0.3,0,0.6-0.3,0.6-0.6v-2.4h1.7c1.1,0,2-0.9,2-2V17.6C37.2,16.5,36.3,15.6,35.2,15.6z"/>
<circle class="st4" cx="20.7" cy="23.5" r="1.4"/>
<circle class="st4" cx="26.2" cy="23.5" r="1.4"/>
<circle class="st4" cx="31.8" cy="23.5" r="1.4"/>
</svg>
