<?xml version="1.0" encoding="utf-8"?>
<!-- Generator: Adobe Illustrator 21.0.0, SVG Export Plug-In . SVG Version: 6.00 Build 0)  -->
<svg version="1.1" id="Layer_1" xmlns="http://www.w3.org/2000/svg" xmlns:xlink="http://www.w3.org/1999/xlink" x="0px" y="0px"
	 viewBox="0 0 50 50" style="enable-background:new 0 0 50 50;" xml:space="preserve">
<style type="text/css">
	.st0{fill:#082E40;}
	.st1{opacity:0.3;}
	.st2{fill:#E8EDEE;}
	.st3{fill:#B0B6BB;}
	.st4{fill:#38454F;}
	.st5{fill:#41C3AC;}
	.st6{fill:#EF6C15;}
</style>
<path class="st0" d="M47.5,25c0,0.1,0,0.1,0,0.2c0,0,0,0.1,0,0.1c-0.2,10.4-7.4,19.1-17.1,21.5c-0.4,0.1-0.9,0.2-1.3,0.3
	c-0.4,0.1-0.9,0.1-1.3,0.2c-0.9,0.1-1.8,0.2-2.7,0.2C12.6,47.5,2.5,37.4,2.5,25C2.5,12.6,12.6,2.5,25,2.5S47.5,12.6,47.5,25z"/>
<path class="st1" d="M47.5,25.2c0,0,0,0.1,0,0.1c-0.2,10.4-7.4,19.1-17.1,21.5l-10.8-8l5.4-2.3L26.4,22l10.5-5.9L47.5,25.2z"/>
<path class="st2" d="M30.2,38.9H19.8c0-1,0.8-1.7,1.7-1.7h7C29.4,37.2,30.2,37.9,30.2,38.9"/>
<polygon class="st3" points="28,37.2 22,37.2 22.8,33.7 27.2,33.7 "/>
<path class="st4" d="M37.6,30.2H12.4V16.9c0-0.8,0.7-1.5,1.5-1.5h22.2c0.8,0,1.5,0.7,1.5,1.5L37.6,30.2L37.6,30.2z"/>
<path class="st2" d="M36.1,33.7H13.9c-0.8,0-1.5-0.7-1.5-1.5v-2h25.2v2C37.6,33,36.9,33.7,36.1,33.7"/>
<g>
	<path class="st5" d="M20.2,28c-0.1,0-0.2,0-0.3-0.1c-0.2-0.2-0.2-0.4,0-0.6l5-5.5c0.2-0.2,0.4-0.2,0.6,0c0.2,0.2,0.2,0.4,0,0.6
		l-5,5.5C20.5,28,20.3,28,20.2,28"/>
	<path class="st5" d="M29.2,26.5c-0.1,0-0.2,0-0.3-0.1L25,22.4c-0.2-0.2-0.2-0.4,0-0.6c0.2-0.2,0.4-0.2,0.6,0l3.9,3.9
		c0.2,0.2,0.2,0.4,0,0.6C29.4,26.4,29.3,26.5,29.2,26.5"/>
	<path class="st5" d="M29.2,26.5c-0.1,0-0.2,0-0.3-0.1c-0.2-0.2-0.2-0.4,0-0.6l6.3-6.3c0.2-0.2,0.4-0.2,0.6,0c0.2,0.2,0.2,0.4,0,0.6
		l-6.3,6.3C29.4,26.4,29.3,26.5,29.2,26.5"/>
	<path class="st5" d="M35.4,23.2c-0.2,0-0.4-0.2-0.4-0.4v-3c0-0.2,0.2-0.4,0.4-0.4c0.2,0,0.4,0.2,0.4,0.4v3
		C35.9,23,35.7,23.2,35.4,23.2"/>
	<path class="st5" d="M35.4,20.2h-3c-0.2,0-0.4-0.2-0.4-0.4c0-0.2,0.2-0.4,0.4-0.4h3c0.2,0,0.4,0.2,0.4,0.4
		C35.9,20,35.7,20.2,35.4,20.2"/>
</g>
<g>
	<path class="st6" d="M14.6,28.5c-0.2,0-0.4-0.2-0.4-0.4v-9.6c0-0.2,0.2-0.4,0.4-0.4c0.2,0,0.4,0.2,0.4,0.4V28
		C15,28.3,14.8,28.5,14.6,28.5"/>
	<path class="st6" d="M17.2,19.3h-0.9c-0.2,0-0.4-0.2-0.4-0.4c0-0.2,0.2-0.4,0.4-0.4h0.9c0.2,0,0.4,0.2,0.4,0.4
		C17.6,19.1,17.4,19.3,17.2,19.3"/>
	<path class="st6" d="M18,21.1h-1.7c-0.2,0-0.4-0.2-0.4-0.4c0-0.2,0.2-0.4,0.4-0.4H18c0.2,0,0.4,0.2,0.4,0.4
		C18.5,20.9,18.3,21.1,18,21.1"/>
	<path class="st6" d="M17.2,22.8h-0.9c-0.2,0-0.4-0.2-0.4-0.4c0-0.2,0.2-0.4,0.4-0.4h0.9c0.2,0,0.4,0.2,0.4,0.4
		C17.6,22.6,17.4,22.8,17.2,22.8"/>
	<path class="st6" d="M18,24.5h-1.7c-0.2,0-0.4-0.2-0.4-0.4c0-0.2,0.2-0.4,0.4-0.4H18c0.2,0,0.4,0.2,0.4,0.4
		C18.5,24.4,18.3,24.5,18,24.5"/>
	<path class="st6" d="M17.2,26.3h-0.9c-0.2,0-0.4-0.2-0.4-0.4c0-0.2,0.2-0.4,0.4-0.4h0.9c0.2,0,0.4,0.2,0.4,0.4
		C17.6,26.1,17.4,26.3,17.2,26.3"/>
	<path class="st6" d="M18,28h-1.7c-0.2,0-0.4-0.2-0.4-0.4c0-0.2,0.2-0.4,0.4-0.4H18c0.2,0,0.4,0.2,0.4,0.4C18.5,27.8,18.3,28,18,28"
		/>
</g>
</svg>
