<?xml version="1.0" encoding="utf-8"?>
<!-- Generator: Adobe Illustrator 21.0.0, SVG Export Plug-In . SVG Version: 6.00 Build 0)  -->
<svg version="1.1" id="Layer_1" xmlns="http://www.w3.org/2000/svg" xmlns:xlink="http://www.w3.org/1999/xlink" x="0px" y="0px"
	 viewBox="0 0 100 30" style="enable-background:new 0 0 100 30;" xml:space="preserve">
<style type="text/css">
	.st0{fill:#FFFFFF;}
	.st1{display:none;}
	.st2{fill:#F26E18;}
	.st3{fill:none;}
	.st4{fill:#1C96BD;}
</style>
<ellipse class="st0" cx="8.3" cy="19.4" rx="0.4" ry="0.6"/>
<rect class="st1" width="100" height="30"/>
<g>
	<circle class="st2" cx="26.9" cy="9.7" r="1.5"/>
	<circle class="st2" cx="21.7" cy="14.5" r="1.8"/>
	<circle class="st2" cx="27.4" cy="18.9" r="2.2"/>
	<g>
		<rect x="20.8" y="11.9" transform="matrix(0.7306 -0.6828 0.6828 0.7306 -1.7023 19.8546)" class="st2" width="7" height="0.3"/>
	</g>
	<g>
		<rect x="24.4" y="13.1" transform="matrix(0.619 -0.7854 0.7854 0.619 -3.7595 25.6422)" class="st2" width="0.3" height="7.1"/>
	</g>
</g>
<g>
	<polygon class="st3" points="7,26.2 18,24.2 18,24.2 7,26.2 	"/>
	<polygon class="st3" points="19.2,8.2 19.4,8.2 19.4,10 19.2,10 19.2,19.8 19.4,19.8 19.4,21.5 19.2,21.5 19.2,24.2 30.1,26.2 
		30.1,3.6 19.2,5.6 	"/>
	<path class="st4" d="M7.7,4.5v20.7l9.6-1.5V6.2L7.7,4.5z M7.7,4.5v20.7l9.6-1.5V6.2L7.7,4.5z M18.6,4.7L6.1,2.5v24.9l12.5-2.2
		L31,27.3V2.5L18.6,4.7z M18,24.2L7,26V3.6l10.9,2V24.2z M30.1,26.2l-10.9-2v-2.7h0.3v-1.8h-0.3V10h0.3V8.2h-0.3V5.6l10.9-2V26.2z
		 M17.3,6.2L7.7,4.5v20.7l9.6-1.5V6.2z"/>
</g>
<ellipse class="st0" cx="8.6" cy="14.9" rx="0.4" ry="0.6"/>
<g>
	<g>
		<path class="st0" d="M9.4,10.9c0.7,0.1,1,0.1,1.7,0.2c0.7,1.4,1.1,2,1.9,3.2c0.7-1.2,1.1-1.7,1.9-2.7c0.7,0.1,1,0.1,1.7,0.2
			c0,2,0,4.1,0,6.1c-0.6,0.1-0.9,0.1-1.5,0.2c0-1.7,0-2.6,0-4.3c-0.8,1.1-1.2,1.7-2,2.9c0,0,0,0,0,0c-0.8-1.1-1.2-1.7-2-3.1
			c0,1.6,0,3.3,0,4.9c-0.6,0.1-0.9,0.1-1.5,0.2C9.4,16.2,9.4,13.6,9.4,10.9z"/>
	</g>
</g>
<path class="st0" d="M35.5,11.8h1.6l1.8,2.9l1.8-2.9h1.6v6.9H41v-4.5l-2,3h0L37,14.2v4.5h-1.5V11.8z"/>
<path class="st0" d="M44.2,11.8h1.5v5.6h3.5v1.4h-5V11.8z"/>
<path class="st0" d="M50.3,11.8h1.6l1.8,2.9l1.8-2.9h1.6v6.9h-1.5v-4.5l-2,3h0l-1.9-2.9v4.5h-1.5V11.8z"/>
<path class="st0" d="M58.9,11.8h1.5v2.7h2.8v-2.7h1.5v6.9h-1.5v-2.8h-2.8v2.8h-1.5V11.8z"/>
<path class="st0" d="M66.1,15.3L66.1,15.3c0-2,1.6-3.6,3.7-3.6c2.1,0,3.7,1.6,3.7,3.6v0c0,2-1.6,3.6-3.7,3.6
	C67.7,18.9,66.1,17.3,66.1,15.3z M71.9,15.3L71.9,15.3c0-1.2-0.9-2.2-2.1-2.2c-1.2,0-2.1,1-2.1,2.2v0c0,1.2,0.9,2.2,2.1,2.2
	C71.1,17.4,71.9,16.5,71.9,15.3z"/>
<path class="st0" d="M74.8,15.8v-4h1.5v3.9c0,1.1,0.6,1.7,1.5,1.7c0.9,0,1.5-0.6,1.5-1.7v-4h1.5v3.9c0,2.1-1.2,3.1-3,3.1
	C75.9,18.8,74.8,17.8,74.8,15.8z"/>
<path class="st0" d="M81.9,17.7l0.9-1.1c0.6,0.5,1.3,0.8,2.1,0.8c0.6,0,1-0.2,1-0.7v0c0-0.4-0.2-0.6-1.4-0.9
	c-1.4-0.4-2.3-0.7-2.3-2.1v0c0-1.3,1-2.1,2.4-2.1c1,0,1.9,0.3,2.6,0.9l-0.8,1.2c-0.6-0.4-1.2-0.7-1.8-0.7c-0.6,0-0.9,0.3-0.9,0.6v0
	c0,0.5,0.3,0.6,1.5,0.9c1.4,0.4,2.2,0.9,2.2,2.1v0c0,1.4-1.1,2.2-2.5,2.2C83.8,18.8,82.7,18.5,81.9,17.7z"/>
<path class="st0" d="M88.7,11.8H94v1.4h-3.7v1.4h3.3v1.4h-3.3v1.5H94v1.4h-5.3V11.8z"/>
</svg>
