<?xml version="1.0" encoding="utf-8"?>
<!-- Generator: Adobe Illustrator 21.0.0, SVG Export Plug-In . SVG Version: 6.00 Build 0)  -->
<svg version="1.1" id="Layer_1" xmlns="http://www.w3.org/2000/svg" xmlns:xlink="http://www.w3.org/1999/xlink" x="0px" y="0px"
	 viewBox="0 0 50 50" style="enable-background:new 0 0 50 50;" xml:space="preserve">
<style type="text/css">
	.st0{fill:#082E40;}
	.st1{opacity:0.3;}
	.st2{fill:#FFFFFF;}
	.st3{fill:#1C95BC;}
	.st4{fill:#EF6C15;}
	.st5{fill:#41C3AC;}
</style>
<path class="st0" d="M47.5,25c0,0.1,0,0.1,0,0.2c0,0,0,0.1,0,0.1c0,0.4,0,0.9-0.1,1.3c-0.1,1.2-0.3,2.4-0.6,3.6
	c-1.9,8.2-8.4,14.6-16.5,16.6c-0.4,0.1-0.9,0.2-1.3,0.3c-0.4,0.1-0.9,0.1-1.3,0.2c-0.7,0.1-1.5,0.1-2.2,0.2c-0.1,0-0.1,0-0.2,0
	c-0.1,0-0.2,0-0.3,0C12.6,47.5,2.5,37.4,2.5,25C2.5,12.6,12.6,2.5,25,2.5S47.5,12.6,47.5,25z"/>
<path class="st1" d="M46.9,30.2c-1.9,8.2-8.4,14.6-16.5,16.6c-0.4,0.1-0.9,0.2-1.3,0.3c-0.4,0.1-0.9,0.1-1.3,0.2
	c-0.7,0.1-1.5,0.1-2.2,0.2c-0.1,0-0.1,0-0.2,0L13.2,36.2l2.7-7.1H25l0-5.2v-4.2l1.9-5.7L46.9,30.2z"/>
<path class="st2" d="M25,20.1c1.9,0,3.4-1.5,3.4-3.4c0-1.9-1.5-3.4-3.4-3.4c-1.9,0-3.4,1.5-3.4,3.4C21.6,18.6,23.1,20.1,25,20.1z"/>
<path class="st2" d="M19.6,28.2h10.9c0.4,0,0.8-0.4,0.8-0.8c0-3.4-2.8-6.2-6.2-6.2s-6.2,2.8-6.2,6.2C18.8,27.8,19.1,28.2,19.6,28.2z
	"/>
<path class="st3" d="M28.3,31.3l-1.8-0.3l-0.8-1.6c-0.3-0.6-1.2-0.6-1.5,0l-0.8,1.6l-1.8,0.3c-0.7,0.1-0.9,0.9-0.5,1.4l1.3,1.2
	l-0.3,1.8c-0.1,0.7,0.6,1.2,1.2,0.9l1.6-0.8l1.6,0.8c0.6,0.3,1.3-0.2,1.2-0.9L27.5,34l1.3-1.2C29.2,32.2,28.9,31.4,28.3,31.3z"/>
<path class="st4" d="M19.2,31.3l-1.8-0.3l-0.8-1.6c-0.3-0.6-1.2-0.6-1.5,0l-0.8,1.6l-1.8,0.3c-0.7,0.1-0.9,0.9-0.5,1.4l1.3,1.2
	l-0.3,1.8c-0.1,0.7,0.6,1.2,1.2,0.9l1.6-0.8l1.6,0.8c0.6,0.3,1.3-0.2,1.2-0.9L18.4,34l1.3-1.2C20.2,32.2,19.9,31.4,19.2,31.3z"/>
<path class="st5" d="M37.3,31.3l-1.8-0.3l-0.8-1.6C34.5,29,34,29,34.1,29c-0.3,0-0.6,0.2-0.7,0.5l-0.8,1.6l-1.8,0.3
	c-0.7,0.1-0.9,0.9-0.5,1.4l1.3,1.2l-0.3,1.8c-0.1,0.7,0.6,1.2,1.2,0.9l1.6-0.8l1.6,0.8c0.6,0.3,1.3-0.2,1.2-0.9L36.5,34l1.3-1.2
	C38.3,32.2,38,31.4,37.3,31.3z"/>
</svg>
