<?xml version="1.0" encoding="utf-8"?>
<!-- Generator: Adobe Illustrator 21.0.0, SVG Export Plug-In . SVG Version: 6.00 Build 0)  -->
<svg version="1.1" id="Capa_1" xmlns="http://www.w3.org/2000/svg" xmlns:xlink="http://www.w3.org/1999/xlink" x="0px" y="0px"
	 viewBox="0 0 980 980" style="enable-background:new 0 0 980 980;" xml:space="preserve">
<style type="text/css">
	.st0{fill:#082E40;}
	.st1{opacity:0.3;}
	.st2{fill:#1C95BC;}
	.st3{fill:#19839B;}
	.st4{fill:#EF6C15;}
	.st5{fill:#DB5E19;}
	.st6{fill:#FFFFFF;}
	.st7{fill:#D8D8D8;}
</style>
<path class="st0" d="M953.7,490c0,1.4,0,2.9,0,4.3c0,0.9,0,1.8,0,2.7c-0.1,8.9-0.5,17.6-1.1,26.4c-0.9,13.4-2.5,26.6-4.5,39.6
	c-0.5,3.2-1,6.4-1.6,9.5c-1.5,8.4-3.3,16.8-5.2,25.1c-36.6,154.2-150.3,278.6-298.1,330.3c-2.4,0.8-4.8,1.6-7.1,2.4
	c-1.3,0.4-2.6,0.9-3.9,1.3c-3.9,1.3-7.8,2.5-11.8,3.6c-2.6,0.8-5.2,1.5-7.9,2.2c-3.9,1.1-7.9,2.1-11.8,3.1
	c-9.1,2.2-18.4,4.2-27.8,5.9c-9.1,1.6-18.2,3-27.5,4.1c-7.3,0.9-14.7,1.6-22.2,2.1c-7.9,0.6-15.9,0.9-24,1.1c-1.2,0-2.3,0-3.5,0
	c-1.3,0-2.6,0-3.9,0c-0.6,0-1.2,0-1.7,0C233.9,953.7,26.3,746.1,26.3,490C26.3,233.9,233.9,26.3,490,26.3S953.7,233.9,953.7,490z"/>
<path class="st1" d="M946.4,572.5c-1.5,8.4-3.3,16.8-5.2,25.1c-36.6,154.2-150.3,278.6-298.1,330.3c-2.4,0.8-4.8,1.6-7.1,2.4
	c-1.3,0.4-2.6,0.9-3.9,1.3c-3.9,1.3-7.8,2.5-11.8,3.6c-2.6,0.8-5.2,1.5-7.9,2.2c-3.9,1.1-7.9,2.1-11.8,3.1
	c-9.1,2.2-18.4,4.2-27.8,5.9c-9.1,1.6-18.2,3-27.5,4.1c-7.3,0.9-14.7,1.6-22.2,2.1L240.5,698.9l45.3-132.4l-7.2-103.8
	c25-109.5,107.9-140.5,107.9-140.5L442,292l48-17.7c8.4,30.8,33.7,10.9,33.7,10.9l-14.5-30.8l19.4-48.7L946.4,572.5z"/>
<path class="st2" d="M616.1,451.7l-191.1,243h-160c-26.6,0-48-21.4-48-48v-31.1c0-1.9,0-3.8,0.3-5.4l28.5-257.9
	c2.9-24.3,23.4-42.6,48-42.6h262.4c24.6,0,46.2,18.2,49.1,42.6L616.1,451.7z"/>
<path class="st3" d="M616.1,451.7l-191.1,243V309.6h131.2c24.6,0,46.2,18.2,49.1,42.6L616.1,451.7z"/>
<path class="st4" d="M747.1,437.6H424.9c-9,0-16,7-16,16v225.1c0,26.6,21.4,48,48,48h258.1c26.6,0,48-21.4,48-48V453.6
	C763.1,444.7,756,437.6,747.1,437.6z"/>
<path class="st5" d="M763.1,453.6v225.1c0,26.6-21.4,48-48,48H586V437.6h161.1C756,437.6,763.1,444.7,763.1,453.6z"/>
<g>
	<path class="st6" d="M536.9,292.6v97.1c0,9-7,16-16,16c-9,0-16-7-16-16v-97.1c0-44.2-35.8-80-80-80s-80,35.8-80,80v97.1
		c0,9-7,16-16,16c-9,0-16-7-16-16v-97.1c0-61.8,50.2-112,112-112S536.9,230.8,536.9,292.6z"/>
	<path class="st6" d="M666,517.6v32c0,44.2-35.8,80-80,80c-44.2,0-81.1-35.8-81.1-80v-32c0-9,7-16,16-16c9,0,16,7,16,16v32
		c0,26.6,22.5,48,49.1,48c26.6,0,48-21.4,48-48v-32c0-9,7-16,16-16C659,501.6,666,508.7,666,517.6z"/>
</g>
<path class="st7" d="M666,517.6v32c0,44.2-35.8,80-80,80v-32c26.6,0,48-21.4,48-48v-32c0-9,7-16,16-16
	C659,501.6,666,508.7,666,517.6z"/>
<path class="st7" d="M552.9,533.6h-64c-8.8,0-16-7.2-16-16c0-8.8,7.2-16,16-16h64c8.8,0,16,7.2,16,16
	C568.9,526.5,561.8,533.6,552.9,533.6z"/>
<g>
	<path class="st7" d="M682,533.6h-64c-8.8,0-16-7.2-16-16c0-8.8,7.2-16,16-16h64c8.8,0,16,7.2,16,16
		C698,526.5,690.8,533.6,682,533.6z"/>
	<path class="st7" d="M536.9,292.6v97.1c0,9-7,16-16,16c-9,0-16-7-16-16v-97.1c0-44.2-35.8-80-80-80v-32
		C486.7,180.6,536.9,230.8,536.9,292.6z"/>
</g>
</svg>
