<?xml version="1.0" encoding="utf-8"?>
<!-- Generator: Adobe Illustrator 21.0.0, SVG Export Plug-In . SVG Version: 6.00 Build 0)  -->
<svg version="1.1" id="Layer_1" xmlns="http://www.w3.org/2000/svg" xmlns:xlink="http://www.w3.org/1999/xlink" x="0px" y="0px"
	 viewBox="0 0 50 50" style="enable-background:new 0 0 50 50;" xml:space="preserve">
<style type="text/css">
	.st0{fill:#082E40;}
	.st1{opacity:0.3;}
	.st2{fill:#1C94BB;}
	.st3{fill:#EF6C15;}
	.st4{fill:#41C3AC;}
	.st5{fill:#FFFFFF;}
</style>
<path class="st0" d="M47.5,25c0,0.1,0,0.1,0,0.2c0,0,0,0.1,0,0.1c0,0.4,0,0.9-0.1,1.3c0,0.6-0.1,1.3-0.2,1.9c0,0.2-0.1,0.3-0.1,0.5
	c-0.1,0.4-0.2,0.8-0.3,1.2c-1.8,7.5-7.3,13.5-14.5,16c-0.1,0-0.2,0.1-0.3,0.1c-0.1,0-0.1,0-0.2,0.1c-0.2,0.1-0.4,0.1-0.6,0.2
	c-0.1,0-0.3,0.1-0.4,0.1c-0.2,0.1-0.4,0.1-0.6,0.1c-0.4,0.1-0.9,0.2-1.3,0.3c-0.4,0.1-0.9,0.1-1.3,0.2c-0.4,0-0.7,0.1-1.1,0.1
	c-0.4,0-0.8,0-1.2,0.1c-0.1,0-0.1,0-0.2,0c-0.1,0-0.1,0-0.2,0c0,0-0.1,0-0.1,0C12.6,47.5,2.5,37.4,2.5,25C2.5,12.6,12.6,2.5,25,2.5
	S47.5,12.6,47.5,25z"/>
<path class="st1" d="M47.1,29c-0.1,0.4-0.2,0.8-0.3,1.2c-1.8,7.5-7.3,13.5-14.5,16c-0.1,0-0.2,0.1-0.3,0.1c-0.1,0-0.1,0-0.2,0.1
	c-0.2,0.1-0.4,0.1-0.6,0.2c-0.1,0-0.3,0.1-0.4,0.1c-0.2,0.1-0.4,0.1-0.6,0.1c-0.4,0.1-0.9,0.2-1.3,0.3c-0.4,0.1-0.9,0.1-1.3,0.2
	c-0.4,0-0.7,0.1-1.1,0.1L12.9,35.1l2.2-6.4l-0.4-5c1.2-5.3,5.2-6.8,5.2-6.8l2.7-1.5l2.3-0.9c0.4,1.5,1.6,0.5,1.6,0.5l-0.7-1.5
	l0.9-2.4L47.1,29z"/>
<path class="st2" d="M26.4,16.8c0.8-0.6,1.4-1.6,1.4-2.8c0-1.6-0.3-3.3-2.8-3.3c-2.4,0-2.8,1.7-2.8,3.3c0,1.2,0.6,2.3,1.4,2.8
	c-1.8,0.5-3.1,2.1-3.1,4c0,1,0.5,1.6,1.5,2c0.7,0.3,1.7,0.4,3.1,0.4c1.4,0,2.4-0.1,3.1-0.4c1-0.4,1.5-1.1,1.5-2
	C29.6,18.9,28.2,17.3,26.4,16.8z"/>
<path class="st3" d="M17.7,29.1c0.8-0.6,1.4-1.6,1.4-2.8c0-1.6-0.3-3.3-2.8-3.3c-2.4,0-2.8,1.7-2.8,3.3c0,1.2,0.6,2.3,1.4,2.8
	c-1.8,0.5-3.1,2.1-3.1,4c0,1,0.5,1.6,1.5,2c0.7,0.3,1.7,0.4,3.1,0.4c1.4,0,2.4-0.1,3.1-0.4c1-0.4,1.5-1.1,1.5-2
	C20.9,31.3,19.5,29.7,17.7,29.1z"/>
<path class="st4" d="M35.1,29.1c0.8-0.6,1.4-1.6,1.4-2.8c0-1.6-0.3-3.3-2.8-3.3c-2.4,0-2.8,1.7-2.8,3.3c0,1.2,0.6,2.3,1.4,2.8
	c-1.8,0.5-3.1,2.1-3.1,4c0,1,0.5,1.6,1.5,2c0.7,0.3,1.7,0.4,3.1,0.4c1.4,0,2.4-0.1,3.1-0.4c1-0.4,1.5-1.1,1.5-2
	C38.3,31.3,36.9,29.7,35.1,29.1z"/>
<path class="st5" d="M28.1,35.3c0-0.1-0.1-0.1-0.2-0.2c-0.1,0-0.2,0-0.2,0c-0.7,0.3-1.6,0.4-2.6,0.4c-1.1,0-2-0.1-2.6-0.4
	c-0.1,0-0.2,0-0.2,0c-0.1,0-0.1,0.1-0.2,0.2l-0.2,0.6c-0.1,0.2,0,0.4,0.2,0.4c0.9,0.3,1.9,0.5,3.1,0.5c1.3,0,2.3-0.2,3.1-0.5
	c0.2-0.1,0.2-0.3,0.2-0.4L28.1,35.3z"/>
<path class="st5" d="M15.4,21.4l0.6,0.3c0,0,0.1,0,0.1,0c0.1,0,0.2-0.1,0.3-0.2c0.3-0.7,0.8-1.4,1.6-2.2c0.8-0.8,1.5-1.3,2.2-1.6
	c0.1,0,0.1-0.1,0.2-0.2c0-0.1,0-0.2,0-0.2l-0.3-0.6c-0.1-0.2-0.3-0.2-0.4-0.2c-0.8,0.4-1.7,1-2.6,1.9c-0.9,0.9-1.5,1.7-1.9,2.6
	C15.2,21.1,15.3,21.3,15.4,21.4z"/>
<path class="st5" d="M29.8,17.7c0.7,0.3,1.4,0.8,2.2,1.6c0.8,0.8,1.3,1.5,1.6,2.2c0.1,0.1,0.2,0.2,0.3,0.2c0,0,0.1,0,0.1,0l0.6-0.3
	c0.2-0.1,0.2-0.3,0.2-0.4c-0.4-0.8-1-1.7-1.9-2.6c-0.9-0.9-1.7-1.5-2.6-1.9c-0.2-0.1-0.4,0-0.4,0.2l-0.3,0.6c0,0.1,0,0.2,0,0.2
	C29.7,17.6,29.7,17.7,29.8,17.7z"/>
</svg>
