<?xml version="1.0" encoding="utf-8"?>
<!-- Generator: Adobe Illustrator 21.0.0, SVG Export Plug-In . SVG Version: 6.00 Build 0)  -->
<svg version="1.1" id="Layer_1" xmlns="http://www.w3.org/2000/svg" xmlns:xlink="http://www.w3.org/1999/xlink" x="0px" y="0px"
	 viewBox="0 0 50 50" style="enable-background:new 0 0 50 50;" xml:space="preserve">
<style type="text/css">
	.st0{fill:#082E40;}
	.st1{opacity:0.3;}
	.st2{fill:#5D5D5D;}
	.st3{fill:#FFFFFF;}
	.st4{fill:#F06C16;}
	.st5{fill:#41C3AC;}
</style>
<path class="st0" d="M47.5,25c0,0.1,0,0.1,0,0.2c0,0,0,0.1,0,0.1C47.3,36.2,39.4,45.3,29,47.1c-0.4,0.1-0.9,0.1-1.3,0.2
	c-0.9,0.1-1.8,0.2-2.7,0.2C12.6,47.5,2.5,37.4,2.5,25C2.5,12.6,12.6,2.5,25,2.5C37.4,2.5,47.5,12.6,47.5,25z"/>
<path class="st1" d="M47.5,25.2c0,0,0,0.1,0,0.1C47.3,36.2,39.4,45.3,29,47.1c-0.4,0.1-0.9,0.1-1.3,0.2l-10.8-7.7l8-13.1l1.5-4.5
	l6.6-9.3L47.5,25.2z"/>
<path class="st2" d="M32.3,12.5H17.6c-0.6,0-1.2,0.5-1.2,1.2V14v11.2v10.7c0,0.6,0.5,1.2,1.2,1.2h14.7c0.6,0,1.2-0.5,1.2-1.2v-4.6
	V20.1v-6.5C33.4,13,32.9,12.5,32.3,12.5z"/>
<path class="st3" d="M32.3,39.8H17.6c-0.6,0-1.2-0.5-1.2-1.2v-4.5h17v4.5C33.4,39.3,32.9,39.8,32.3,39.8z"/>
<circle class="st2" cx="24.9" cy="37" r="1.4"/>
<path class="st4" d="M22.4,22.2c0.5-0.9,0.8-2,0.6-3.2c-0.2-2.6-2.3-4.8-4.9-5.1c-3.7-0.5-6.8,2.7-6.3,6.4c0.3,2.6,2.5,4.6,5.1,4.9
	c1.2,0.1,2.3-0.1,3.2-0.7c0.3,0.5,0.9,1.2,2,1.2c0,0-0.1-0.2-0.2-0.6C21.7,24.1,21.9,23.1,22.4,22.2z"/>
<path class="st5" d="M27.5,28.3c-0.5-0.9-0.8-2-0.6-3.2c0.2-2.6,2.3-4.8,4.9-5.1c3.7-0.5,6.8,2.7,6.3,6.4c-0.3,2.6-2.5,4.6-5.1,4.9
	c-1.2,0.1-2.3-0.1-3.2-0.7c-0.3,0.5-0.9,1.2-2,1.2c0,0,0.1-0.2,0.2-0.6C28.2,30.2,28,29.2,27.5,28.3z"/>
<g>
	<rect x="29.2" y="24.7" class="st3" width="1.9" height="1.9"/>
	<rect x="33.9" y="24.7" class="st3" width="1.9" height="1.9"/>
	<rect x="14.1" y="18.6" class="st3" width="1.9" height="1.9"/>
	<rect x="18.8" y="18.6" class="st3" width="1.9" height="1.9"/>
</g>
</svg>
