<?xml version="1.0" encoding="utf-8"?>
<!-- Generator: Adobe Illustrator 21.0.0, SVG Export Plug-In . SVG Version: 6.00 Build 0)  -->
<svg version="1.1" id="Layer_1" xmlns="http://www.w3.org/2000/svg" xmlns:xlink="http://www.w3.org/1999/xlink" x="0px" y="0px"
	 viewBox="0 0 150 150" style="enable-background:new 0 0 150 150;" xml:space="preserve">
<style type="text/css">
	.st0{fill:#41C3AC;}
	.st1{fill:#FFFFFF;}
</style>
<path id="XMLID_323_" class="st0" d="M91.8,58v-4.8c0-1-0.4-2-1.2-2.6c-4.3-3.6-9-5.9-9.9-6.4c-0.1-0.1-0.2-0.2-0.2-0.3v-6.7
	c0.8-0.6,1.4-1.5,1.4-2.6v-7c0-3.5-2.8-6.3-6.3-6.3h-0.7h-0.8c-3.5,0-6.3,2.8-6.3,6.3v7c0,1.1,0.5,2.1,1.4,2.6v6.7
	c0,0.1-0.1,0.2-0.2,0.3c-1,0.5-5.6,2.8-10,6.4c-0.8,0.6-1.2,1.6-1.2,2.6V58"/>
<path class="st1" d="M94.3,63c1.4,0,2.5-1.1,2.5-2.5v-5.5c0-1.9-0.8-3.7-2.3-4.9c-4.1-3.3-8.4-5.8-10.6-7V38c1-1.1,1.6-2.6,1.6-4.1
	v-7.9c0-5.3-4.3-9.6-9.6-9.6h-1.7c-5.3,0-9.6,4.3-9.6,9.6v7.9c0,1.5,0.6,3,1.6,4.1v5.2c-2.2,1.1-6.5,3.6-10.6,7
	c-1.5,1.2-2.3,3-2.3,4.9v5.5c0,1.4,1.1,2.5,2.5,2.5c1.4,0,2.5-1.1,2.5-2.5v-5.5c0-0.4,0.2-0.8,0.5-1.1c4.7-3.9,9.8-6.5,10.8-6.9
	c1-0.5,1.6-1.5,1.6-2.5v-7.7c0-0.8-0.4-1.6-1.1-2.1c-0.3-0.2-0.5-0.5-0.5-0.9v-7.9c0-2.6,2.1-4.7,4.7-4.7h1.7c2.6,0,4.7,2.1,4.7,4.7
	v7.9c0,0.4-0.2,0.7-0.5,0.9c-0.7,0.5-1.1,1.2-1.1,2.1v7.7c0,1.1,0.6,2.1,1.6,2.5c1,0.5,6.1,3.1,10.8,6.9c0.3,0.2,0.5,0.6,0.5,1.1
	v5.5C91.8,61.9,92.9,63,94.3,63z"/>
<path class="st1" d="M72.5,84.8c0,1.4,1.1,2.5,2.5,2.5c1.4,0,2.5-1.1,2.5-2.5v-7.6H120v7.6c0,1.4,1.1,2.5,2.5,2.5
	c1.4,0,2.5-1.1,2.5-2.5V74.7c0-1.4-1.1-2.5-2.5-2.5h-45v-7.6c0-1.4-1.1-2.5-2.5-2.5c-1.4,0-2.5,1.1-2.5,2.5v7.6H27.3
	c-1.4,0-2.5,1.1-2.5,2.5v10.1c0,1.4,1.1,2.5,2.5,2.5c1.4,0,2.5-1.1,2.5-2.5v-7.6h42.7V84.8z"/>
<path class="st1" d="M132,107v-7c0-4.9-3.9-8.8-8.8-8.8h-1.5c-4.9,0-8.8,3.9-8.8,8.8v7c0,1.4,0.5,2.7,1.4,3.7v4.3
	c-1.9,1-5.7,3.2-9.2,6.1c-1.4,1.1-2.1,2.8-2.1,4.6v4.8c0,1.4,1.1,2.5,2.5,2.5c1.4,0,2.5-1.1,2.5-2.5v-4.8c0-0.3,0.1-0.5,0.3-0.7
	c4.1-3.4,8.6-5.6,9.5-6.1c1-0.5,1.6-1.5,1.6-2.5v-6.7c0-0.8-0.4-1.6-1.1-2.1c-0.1-0.1-0.3-0.2-0.3-0.5v-7c0-2.1,1.7-3.8,3.8-3.8h1.5
	c2.1,0,3.8,1.7,3.8,3.8v7c0,0.3-0.2,0.5-0.3,0.5c-0.7,0.5-1.1,1.2-1.1,2.1v6.7c0,1.1,0.6,2.1,1.6,2.5c0.8,0.4,5.3,2.7,9.5,6.1
	c0.2,0.2,0.3,0.4,0.3,0.7v4.8c0,1.4,1.1,2.5,2.5,2.5c1.4,0,2.5-1.1,2.5-2.5v-4.8c0-1.8-0.8-3.4-2.1-4.6c-3.5-2.9-7.3-5-9.2-6.1v-4.3
	C131.5,109.7,132,108.4,132,107z"/>
<path class="st1" d="M91.8,132.9c1.4,0,2.5-1.1,2.5-2.5v-4.8c0-1.8-0.8-3.4-2.1-4.6c-3.5-2.9-7.3-5-9.2-6.1v-4.3
	c0.9-1,1.4-2.3,1.4-3.7v-7c0-4.9-3.9-8.8-8.8-8.8h-1.5c-4.9,0-8.8,3.9-8.8,8.8v7c0,1.4,0.5,2.7,1.4,3.7v4.3c-1.9,1-5.7,3.2-9.2,6.1
	c-1.4,1.1-2.1,2.8-2.1,4.6v4.8c0,1.4,1.1,2.5,2.5,2.5c1.4,0,2.5-1.1,2.5-2.5v-4.8c0-0.3,0.1-0.5,0.3-0.7c4.1-3.4,8.6-5.6,9.5-6.1
	c1-0.5,1.6-1.5,1.6-2.5v-6.7c0-0.8-0.4-1.6-1.1-2.1c-0.1-0.1-0.3-0.2-0.3-0.5v-7c0-2.1,1.7-3.8,3.8-3.8h1.5c2.1,0,3.8,1.7,3.8,3.8v7
	c0,0.3-0.2,0.5-0.3,0.5c-0.7,0.5-1.1,1.2-1.1,2.1v6.7c0,1.1,0.6,2.1,1.6,2.5c0.8,0.4,5.3,2.7,9.5,6.1c0.2,0.2,0.3,0.4,0.3,0.7v4.8
	C89.3,131.8,90.5,132.9,91.8,132.9z"/>
<path class="st1" d="M43.9,132.5c1.4,0,2.5-1.1,2.5-2.5v-4.7c0-1.8-0.8-3.4-2.1-4.5c-3.5-2.9-7.2-5-9.1-6v-4.2
	c0.9-1,1.4-2.3,1.4-3.7v-6.9c0-4.8-3.9-8.7-8.7-8.7h-1.5c-4.8,0-8.7,3.9-8.7,8.7v6.9c0,1.4,0.5,2.7,1.4,3.7v4.2
	c-1.9,1-5.6,3.2-9.1,6c-1.3,1.1-2.1,2.7-2.1,4.5v4.7c0,1.4,1.1,2.5,2.5,2.5c1.4,0,2.5-1.1,2.5-2.5v-4.7c0-0.3,0.1-0.5,0.3-0.7
	c4.1-3.3,8.5-5.6,9.3-6c1-0.5,1.6-1.5,1.6-2.5v-6.7c0-0.8-0.4-1.6-1.1-2.1c-0.1-0.1-0.3-0.2-0.3-0.5v-6.9c0-2.1,1.7-3.7,3.7-3.7h1.5
	c2.1,0,3.7,1.7,3.7,3.7v6.9c0,0.3-0.2,0.5-0.3,0.5c-0.7,0.5-1.1,1.2-1.1,2.1v6.7c0,1.1,0.6,2.1,1.6,2.5c0.8,0.4,5.3,2.7,9.3,6
	c0.2,0.2,0.3,0.4,0.3,0.7v4.7C41.4,131.4,42.6,132.5,43.9,132.5z"/>
</svg>
