<?xml version="1.0" encoding="utf-8"?>
<!-- Generator: Adobe Illustrator 21.0.0, SVG Export Plug-In . SVG Version: 6.00 Build 0)  -->
<svg version="1.1" id="Layer_1" xmlns="http://www.w3.org/2000/svg" xmlns:xlink="http://www.w3.org/1999/xlink" x="0px" y="0px"
	 viewBox="0 0 50 50" style="enable-background:new 0 0 50 50;" xml:space="preserve">
<style type="text/css">
	.st0{fill:none;}
	.st1{fill:#FFFFFF;}
	.st2{fill:#F26E18;}
	.st3{fill:#1C96BD;}
</style>
<g>
	<path class="st0" d="M28.9,38.8c-0.8,0-1.4,0.7-1.4,1.5v0c0,0.8,0.6,1.5,1.4,1.5c0.8,0,1.4-0.7,1.4-1.5v0
		C30.3,39.5,29.7,38.8,28.9,38.8z"/>
	<polygon class="st1" points="8.1,39.9 6.8,37.9 5.7,37.9 5.7,42.6 6.7,42.6 6.7,39.6 8,41.6 8.1,41.6 9.4,39.6 9.4,42.6 10.4,42.6 
		10.4,37.9 9.3,37.9 	"/>
	<polygon class="st1" points="12.6,37.9 11.5,37.9 11.5,42.6 14.9,42.6 14.9,41.7 12.6,41.7 	"/>
	<polygon class="st1" points="18,39.9 16.8,37.9 15.7,37.9 15.7,42.6 16.7,42.6 16.7,39.6 18,41.6 18,41.6 19.4,39.6 19.4,42.6 
		20.4,42.6 20.4,37.9 19.3,37.9 	"/>
	<polygon class="st1" points="24.4,39.8 22.5,39.8 22.5,37.9 21.5,37.9 21.5,42.6 22.5,42.6 22.5,40.8 24.4,40.8 24.4,42.6 
		25.5,42.6 25.5,37.9 24.4,37.9 	"/>
	<path class="st1" d="M28.9,37.9c-1.4,0-2.5,1.1-2.5,2.4v0c0,1.3,1,2.4,2.5,2.4c1.4,0,2.5-1.1,2.5-2.4v0
		C31.4,38.9,30.3,37.9,28.9,37.9z M30.3,40.3c0,0.8-0.6,1.5-1.4,1.5c-0.8,0-1.4-0.7-1.4-1.5v0c0-0.8,0.6-1.5,1.4-1.5
		C29.7,38.8,30.3,39.5,30.3,40.3L30.3,40.3z"/>
	<path class="st1" d="M35.3,40.6c0,0.7-0.4,1.1-1,1.1c-0.6,0-1-0.4-1-1.2v-2.7h-1v2.7c0,1.4,0.8,2.1,2,2.1s2.1-0.7,2.1-2.1v-2.6h-1
		V40.6z"/>
	<path class="st1" d="M39.3,39.8c-0.8-0.2-1-0.3-1-0.6v0c0-0.2,0.2-0.4,0.6-0.4c0.4,0,0.8,0.2,1.2,0.5l0.5-0.8
		c-0.5-0.4-1.1-0.6-1.7-0.6c-1,0-1.6,0.6-1.6,1.4v0c0,0.9,0.6,1.2,1.6,1.4c0.8,0.2,0.9,0.3,0.9,0.6v0c0,0.3-0.3,0.4-0.7,0.4
		c-0.5,0-1-0.2-1.4-0.6L37,42c0.6,0.5,1.3,0.8,2,0.8c1,0,1.7-0.5,1.7-1.5v0C40.7,40.4,40.2,40.1,39.3,39.8z"/>
	<polygon class="st1" points="42.7,41.7 42.7,40.7 44.9,40.7 44.9,39.8 42.7,39.8 42.7,38.9 45.2,38.9 45.2,37.9 41.6,37.9 
		41.6,42.6 45.2,42.6 45.2,41.7 	"/>
</g>
<g>
	<circle class="st2" cx="34" cy="15.6" r="1.5"/>
	<circle class="st2" cx="28.6" cy="20.6" r="1.9"/>
	<circle class="st2" cx="34.5" cy="25.3" r="2.3"/>
	<g>
		
			<rect x="27.6" y="17.9" transform="matrix(0.7306 -0.6828 0.6828 0.7306 -3.9241 26.2483)" class="st2" width="7.4" height="0.3"/>
	</g>
	<g>
		<rect x="31.4" y="19.2" transform="matrix(0.619 -0.7854 0.7854 0.619 -5.9952 33.5218)" class="st2" width="0.3" height="7.5"/>
	</g>
</g>
<g>
	<polygon class="st0" points="13.2,32.9 24.7,30.9 24.7,30.9 13.2,32.9 	"/>
	<polygon class="st0" points="25.9,14 26.2,14 26.2,15.9 25.9,15.9 25.9,26.2 26.2,26.2 26.2,28 25.9,28 25.9,30.9 37.4,32.9 
		37.4,9.2 25.9,11.3 	"/>
	<path class="st3" d="M13.9,10.1v21.8l10-1.6V11.9L13.9,10.1z M13.9,10.1v21.8l10-1.6V11.9L13.9,10.1z M25.3,10.4L12.2,8v26.1
		l13.1-2.3l13.1,2.3V8L25.3,10.4z M24.7,30.9l-11.5,1.8V9.2l11.5,2.1V30.9z M37.4,32.9l-11.5-2.1V28h0.3v-1.9h-0.3V15.9h0.3V14h-0.3
		v-2.7l11.5-2.1V32.9z M23.9,11.9l-10-1.8v21.8l10-1.6V11.9z"/>
</g>
<ellipse class="st1" cx="14.8" cy="21.1" rx="0.5" ry="0.7"/>
<g>
	<g>
		<path class="st1" d="M15.7,16.9c0.7,0.1,1.1,0.1,1.8,0.2c0.8,1.4,1.2,2.1,1.9,3.4c0.8-1.2,1.2-1.8,1.9-2.9
			c0.7,0.1,1.1,0.1,1.8,0.2c0,2.1,0,4.3,0,6.4c-0.6,0.1-1,0.1-1.6,0.2c0-1.8,0-2.7,0-4.5c-0.8,1.1-1.2,1.8-2.1,3.1c0,0,0,0,0,0
			c-0.8-1.2-1.2-1.8-2.1-3.2c0,1.7,0,3.4,0,5.2c-0.6,0.1-1,0.1-1.6,0.2C15.7,22.5,15.7,19.7,15.7,16.9z"/>
	</g>
</g>
</svg>
